<svg xmlns="http://www.w3.org/2000/svg" version="1.1" xmlns:xlink="http://www.w3.org/1999/xlink" width="512" height="512" x="0" y="0" viewBox="0 0 24 24" style="enable-background:new 0 0 512 512" xml:space="preserve" class=""><g><path d="M22.867 18.985c-.515 0-.946-.361-1.067-.862-.809-3.356-2.643-6.666-5.092-9.418L1.707 23.707a.997.997 0 0 1-1.414 0 .999.999 0 0 1 0-1.414L15.295 7.29C12.54 4.834 9.224 2.994 5.861 2.184a1.105 1.105 0 0 1-.862-1.067A1.096 1.096 0 0 1 6.12.02c5.168.182 9.265 1.637 12.228 4.218l.945-.945a.999.999 0 1 1 1.414 1.414l-.946.946c2.572 2.962 4.022 7.054 4.204 12.213a1.094 1.094 0 0 1-1.098 1.12Z" fill="#b9b801" opacity="1" data-original="#000000" class=""></path></g></svg>