<svg xmlns="http://www.w3.org/2000/svg" version="1.1" xmlns:xlink="http://www.w3.org/1999/xlink" width="512" height="512" x="0" y="0" viewBox="0 0 24 24" style="enable-background:new 0 0 512 512" xml:space="preserve" class=""><g><path d="M20 15c2.206 0 4-1.794 4-4a1 1 0 1 0-2 0c0 1.103-.897 2-2 2V2h3a1 1 0 1 0 0-2H1a1 1 0 1 0 0 2h3v20H1a1 1 0 1 0 0 2h22a1 1 0 1 0 0-2h-3v-7Zm-2 2H6v-2h12v2Zm0-8H6V7h12v2ZM6 13v-2h12v2H6ZM18 2v3H6V2h12ZM6 22v-3h12v3H6Z" fill="#8c80fc" opacity="1" data-original="#000000" class=""></path></g></svg>