<svg xmlns="http://www.w3.org/2000/svg" version="1.1" xmlns:xlink="http://www.w3.org/1999/xlink" width="512" height="512" x="0" y="0" viewBox="0 0 24 24" style="enable-background:new 0 0 512 512" xml:space="preserve" class=""><g><path d="M21 7c0 .55-.45 1-1 1h-3.02c-.26 3.9-3.52 7-7.48 7H6.8l8.83 7.23a1 1 0 0 1 .14 1.41c-.2.24-.49.37-.78.37-.22 0-.45-.07-.63-.23L3.37 14.77a1 1 0 0 1-.31-1.11c.14-.4.52-.66.94-.66h5.5c2.86 0 5.22-2.2 5.48-5H4c-.55 0-1-.45-1-1s.45-1 1-1h10.79c-.65-2.31-2.78-4-5.29-4H4c-.55 0-1-.45-1-1s.45-1 1-1h16c.55 0 1 .45 1 1s-.45 1-1 1h-5.41a7.458 7.458 0 0 1 2.25 4h3.15c.55 0 1 .45 1 1Z" fill="#00adb7" opacity="1" data-original="#000000" class=""></path></g></svg>