<svg xmlns="http://www.w3.org/2000/svg" width="69.554" height="69.554" viewBox="0 0 69.554 69.554">
  <g id="check" transform="translate(83.415 83.36)">
    <circle id="Ellipse_440" data-name="Ellipse 440" cx="24.595" cy="24.595" r="24.595" transform="translate(-83.415 -48.583) rotate(-45)" fill="#46cc6b"/>
    <path id="Path_29590" data-name="Path 29590" d="M155.387,135.319a24.615,24.615,0,0,1-20.068,20.068l-13.24-13.24a14.256,14.256,0,1,1,20.068-20.068Z" transform="translate(-179.779 -179.73)" fill="#179c5f" fill-rule="evenodd"/>
    <path id="Path_29591" data-name="Path 29591" d="M124.474,131.993l4.06,3.728a1.481,1.481,0,0,0,2.066-.058l7.243-6.935a1.48,1.48,0,0,0-2.052-2.134l-6.274,6.007-3.037-2.789a1.481,1.481,0,0,0-2.006,2.18Zm6.673-15.1a14.256,14.256,0,1,1-14.256,14.256A14.255,14.255,0,0,1,131.147,116.891Z" transform="translate(-179.779 -179.73)" fill="#fff" fill-rule="evenodd"/>
  </g>
</svg>
