<svg width="62" height="62" viewBox="0 0 62 62" fill="none" xmlns="http://www.w3.org/2000/svg">
<rect width="62" height="62" rx="10" fill="white"/>
<path d="M40.9375 50H19.5625C18.618 49.999 17.7125 49.6233 17.0446 48.9554C16.3767 48.2875 16.001 47.382 16 46.4375V15.5625C16.001 14.618 16.3767 13.7125 17.0446 13.0446C17.7125 12.3767 18.618 12.001 19.5625 12H38.5625C38.8774 12.0001 39.1794 12.1252 39.4021 12.3479L44.1521 17.0979C44.3748 17.3206 44.4999 17.6226 44.5 17.9375V30.2281C44.5 30.5431 44.3749 30.8451 44.1522 31.0678C43.9295 31.2905 43.6274 31.4156 43.3125 31.4156C42.9976 31.4156 42.6955 31.2905 42.4728 31.0678C42.2501 30.8451 42.125 30.5431 42.125 30.2281V18.4292L38.0708 14.375H19.5625C19.2477 14.3754 18.9459 14.5007 18.7233 14.7233C18.5007 14.9459 18.3754 15.2477 18.375 15.5625V46.4375C18.3754 46.7523 18.5007 47.0541 18.7233 47.2767C18.9459 47.4993 19.2477 47.6246 19.5625 47.625H40.9375C41.2523 47.6246 41.5541 47.4993 41.7767 47.2767C41.9993 47.0541 42.1246 46.7523 42.125 46.4375V44.0625C42.125 43.7476 42.2501 43.4455 42.4728 43.2228C42.6955 43.0001 42.9976 42.875 43.3125 42.875C43.6274 42.875 43.9295 43.0001 44.1522 43.2228C44.3749 43.4455 44.5 43.7476 44.5 44.0625V46.4375C44.499 47.382 44.1233 48.2875 43.4554 48.9554C42.7875 49.6233 41.882 49.999 40.9375 50Z" fill="#02BC77"/>
<path d="M43.3125 20.3125H37.375C37.0601 20.3125 36.758 20.1874 36.5353 19.9647C36.3126 19.742 36.1875 19.4399 36.1875 19.125V13.1875C36.1875 12.8726 36.3126 12.5705 36.5353 12.3478C36.758 12.1251 37.0601 12 37.375 12C37.6899 12 37.992 12.1251 38.2147 12.3478C38.4374 12.5705 38.5625 12.8726 38.5625 13.1875V17.9375H43.3125C43.6274 17.9375 43.9295 18.0626 44.1522 18.2853C44.3749 18.508 44.5 18.8101 44.5 19.125C44.5 19.4399 44.3749 19.742 44.1522 19.9647C43.9295 20.1874 43.6274 20.3125 43.3125 20.3125Z" fill="#02BC77"/>
<path d="M38.5625 25.0625H21.9375C21.6226 25.0625 21.3205 24.9374 21.0978 24.7147C20.8751 24.492 20.75 24.1899 20.75 23.875C20.75 23.5601 20.8751 23.258 21.0978 23.0353C21.3205 22.8126 21.6226 22.6875 21.9375 22.6875H38.5625C38.8774 22.6875 39.1795 22.8126 39.4022 23.0353C39.6249 23.258 39.75 23.5601 39.75 23.875C39.75 24.1899 39.6249 24.492 39.4022 24.7147C39.1795 24.9374 38.8774 25.0625 38.5625 25.0625Z" fill="#02BC77"/>
<path d="M33.8125 29.8125H21.9375C21.6226 29.8125 21.3205 29.6874 21.0978 29.4647C20.8751 29.242 20.75 28.9399 20.75 28.625C20.75 28.3101 20.8751 28.008 21.0978 27.7853C21.3205 27.5626 21.6226 27.4375 21.9375 27.4375H33.8125C34.1274 27.4375 34.4295 27.5626 34.6522 27.7853C34.8749 28.008 35 28.3101 35 28.625C35 28.9399 34.8749 29.242 34.6522 29.4647C34.4295 29.6874 34.1274 29.8125 33.8125 29.8125Z" fill="#02BC77"/>
<path d="M30.25 34.5625H21.9375C21.6226 34.5625 21.3205 34.4374 21.0978 34.2147C20.8751 33.992 20.75 33.6899 20.75 33.375C20.75 33.0601 20.8751 32.758 21.0978 32.5353C21.3205 32.3126 21.6226 32.1875 21.9375 32.1875H30.25C30.5649 32.1875 30.867 32.3126 31.0897 32.5353C31.3124 32.758 31.4375 33.0601 31.4375 33.375C31.4375 33.6899 31.3124 33.992 31.0897 34.2147C30.867 34.4374 30.5649 34.5625 30.25 34.5625Z" fill="#02BC77"/>
<path d="M29.0625 39.3125H21.9375C21.6226 39.3125 21.3205 39.1874 21.0978 38.9647C20.8751 38.742 20.75 38.4399 20.75 38.125C20.75 37.8101 20.8751 37.508 21.0978 37.2853C21.3205 37.0626 21.6226 36.9375 21.9375 36.9375H29.0625C29.3774 36.9375 29.6795 37.0626 29.9022 37.2853C30.1249 37.508 30.25 37.8101 30.25 38.125C30.25 38.4399 30.1249 38.742 29.9022 38.9647C29.6795 39.1874 29.3774 39.3125 29.0625 39.3125Z" fill="#02BC77"/>
<path d="M31.4375 44.0625H21.9375C21.6226 44.0625 21.3205 43.9374 21.0978 43.7147C20.8751 43.492 20.75 43.1899 20.75 42.875C20.75 42.5601 20.8751 42.258 21.0978 42.0353C21.3205 41.8126 21.6226 41.6875 21.9375 41.6875H31.4375C31.7524 41.6875 32.0545 41.8126 32.2772 42.0353C32.4999 42.258 32.625 42.5601 32.625 42.875C32.625 43.1899 32.4999 43.492 32.2772 43.7147C32.0545 43.9374 31.7524 44.0625 31.4375 44.0625Z" fill="#02BC77"/>
<path d="M32.625 20.3125H21.9375C21.6226 20.3125 21.3205 20.1874 21.0978 19.9647C20.8751 19.742 20.75 19.4399 20.75 19.125C20.75 18.8101 20.8751 18.508 21.0978 18.2853C21.3205 18.0626 21.6226 17.9375 21.9375 17.9375H32.625C32.9399 17.9375 33.242 18.0626 33.4647 18.2853C33.6874 18.508 33.8125 18.8101 33.8125 19.125C33.8125 19.4399 33.6874 19.742 33.4647 19.9647C33.242 20.1874 32.9399 20.3125 32.625 20.3125Z" fill="#02BC77"/>
<path d="M40.0469 39.9062C39.8909 39.9064 39.7364 39.8758 39.5924 39.8161C39.4483 39.7564 39.3174 39.6688 39.2073 39.5583L37.4261 37.7771C37.2097 37.5531 37.0901 37.2531 37.0928 36.9418C37.0955 36.6304 37.2204 36.3326 37.4405 36.1124C37.6607 35.8922 37.9585 35.7673 38.2699 35.7646C38.5813 35.7619 38.8812 35.8816 39.1052 36.0979L40.0469 37.0395L42.7698 34.3167C42.9938 34.1004 43.2937 33.9807 43.6051 33.9834C43.9165 33.9861 44.2143 34.111 44.4345 34.3311C44.6546 34.5513 44.7795 34.8492 44.7822 35.1605C44.7849 35.4719 44.6652 35.7718 44.4489 35.9958L40.8864 39.5583C40.7763 39.6688 40.6455 39.7564 40.5014 39.8161C40.3573 39.8758 40.2028 39.9064 40.0469 39.9062Z" fill="#02BC77"/>
<path d="M40.9375 45.25C39.2934 45.25 37.6863 44.7625 36.3193 43.8491C34.9523 42.9357 33.8869 41.6375 33.2578 40.1186C32.6286 38.5996 32.464 36.9283 32.7847 35.3158C33.1055 33.7033 33.8972 32.2222 35.0597 31.0597C36.2222 29.8972 37.7033 29.1055 39.3158 28.7847C40.9283 28.464 42.5996 28.6286 44.1186 29.2578C45.6375 29.8869 46.9357 30.9523 47.8491 32.3193C48.7625 33.6863 49.25 35.2934 49.25 36.9375C49.2476 39.1414 48.371 41.2543 46.8126 42.8126C45.2543 44.371 43.1414 45.2476 40.9375 45.25ZM40.9375 31C39.7632 31 38.6152 31.3482 37.6388 32.0007C36.6624 32.6531 35.9014 33.5804 35.452 34.6653C35.0026 35.7503 34.885 36.9441 35.1141 38.0959C35.3432 39.2476 35.9087 40.3056 36.7391 41.1359C37.5694 41.9663 38.6274 42.5318 39.7792 42.7609C40.9309 42.99 42.1248 42.8724 43.2097 42.423C44.2946 41.9736 45.2219 41.2126 45.8744 40.2362C46.5268 39.2598 46.875 38.1118 46.875 36.9375C46.8732 35.3633 46.247 33.8542 45.1339 32.7411C44.0208 31.628 42.5117 31.0019 40.9375 31Z" fill="#02BC77"/>
</svg>
