<svg xmlns="http://www.w3.org/2000/svg" xmlns:xlink="http://www.w3.org/1999/xlink" width="60" height="61" viewBox="0 0 60 61">
  <defs>
    <clipPath id="clip-path">
      <path id="path366" d="M0-682.665H30.166V-652.5H0Z" transform="translate(0 682.665)"/>
    </clipPath>
  </defs>
  <g id="Farmers" transform="translate(-549 -143)">
    <rect id="Rectangle_223" data-name="Rectangle 223" width="60" height="61" rx="10" transform="translate(549 143)" fill="#ffd950" opacity="0.17"/>
    <g id="g360" transform="translate(565.917 841.027)">
      <g id="g362" transform="translate(0 -682.665)">
        <g id="g364" clip-path="url(#clip-path)">
          <g id="g370" transform="translate(18.82 8.993)">
            <path id="path372" d="M-28.518,0c1.246,1.315.683,3.289-1.318,3.793" transform="translate(29.836)" fill="none" stroke="#f1892f" stroke-linecap="round" stroke-linejoin="round" stroke-miterlimit="10" stroke-width="1"/>
          </g>
          <g id="g374" transform="translate(6.535 0.442)">
            <path id="path376" d="M0-137.085l1.256-4.435a2.306,2.306,0,0,1,2.061-1.9h6.3a2.3,2.3,0,0,1,2.061,1.9l1.256,4.435" transform="translate(0 143.422)" fill="none" stroke="#f1892f" stroke-linecap="round" stroke-linejoin="round" stroke-miterlimit="10" stroke-width="1"/>
          </g>
          <g id="g378" transform="translate(7.295 4.099)">
            <path id="path380" d="M-104.62,0h-4.837m11.42,0h-4.541" transform="translate(109.457)" fill="none" stroke="#f1892f" stroke-linecap="round" stroke-linejoin="round" stroke-miterlimit="10" stroke-width="1"/>
          </g>
          <g id="g382" transform="translate(9.306 11.6)">
            <path id="path384" d="M0-6.025a1.007,1.007,0,0,1,1.39,0" transform="translate(0 6.304)" fill="none" stroke="#f1892f" stroke-linecap="round" stroke-linejoin="round" stroke-miterlimit="10" stroke-width="1"/>
          </g>
          <g id="g386" transform="translate(15.314 11.6)">
            <path id="path388" d="M0-6.025a1.009,1.009,0,0,1,1.392,0" transform="translate(0 6.304)" fill="none" stroke="#f1892f" stroke-linecap="round" stroke-linejoin="round" stroke-miterlimit="10" stroke-width="1"/>
          </g>
          <g id="g390" transform="translate(11.998 14.901)">
            <path id="path392" d="M0,0A1.425,1.425,0,0,0,2.016,0" fill="none" stroke="#f1892f" stroke-linecap="round" stroke-linejoin="round" stroke-miterlimit="10" stroke-width="1"/>
          </g>
          <g id="g394" transform="translate(3.493 6.779)">
            <path id="path396" d="M-205.74,0h8.524c.646,0,1.261.028.86.743-.99,1.76-5.18,2.239-9.384,2.311-4.2-.072-8.394-.55-9.384-2.311-.4-.714.216-.743.86-.743Z" transform="translate(215.252)" fill="none" stroke="#f1892f" stroke-linecap="round" stroke-linejoin="round" stroke-miterlimit="10" stroke-width="1"/>
          </g>
          <g id="g398" transform="translate(7.144 9.318)">
            <path id="path400" d="M-253.534,0V2.9c0,2.1-1.976,4.742-4.393,5.637a4.144,4.144,0,0,1-1.467.3,4.144,4.144,0,0,1-1.467-.3c-2.416-.9-4.393-3.534-4.393-5.637V0" transform="translate(265.255)" fill="none" stroke="#f1892f" stroke-linecap="round" stroke-linejoin="round" stroke-miterlimit="10" stroke-width="1"/>
          </g>
          <g id="g402" transform="translate(18.139 19.128)">
            <path id="path404" d="M-44.077-14.041v4.787m-2.038,0v-5.436" transform="translate(46.115 14.691)" fill="none" stroke="#f1892f" stroke-linecap="round" stroke-linejoin="round" stroke-miterlimit="10" stroke-width="1"/>
          </g>
          <g id="g406" transform="translate(5.832 19.128)">
            <path id="path408" d="M0-14.041v4.787m2.038,0v-5.436" transform="translate(0 14.691)" fill="none" stroke="#f1892f" stroke-linecap="round" stroke-linejoin="round" stroke-miterlimit="10" stroke-width="1"/>
          </g>
          <g id="g410" transform="translate(0.556 16.942)">
            <path id="path412" d="M-202.1-28.119a3.115,3.115,0,0,0,3.105,3.107,3.115,3.115,0,0,0,3.105-3.107m8.424,4.489c-1.581-2.431-5.623-3.416-8.017-4.029-.254-.065-.407-.181-.407-.46v-1.3m-6.21,0v1.3c0,.279-.152.395-.4.46-2.96.758-8.435,2.081-8.671,6l-.263,4.352c-.032.532.1.668.656.668h23.6" transform="translate(211.44 29.419)" fill="none" stroke="#f1892f" stroke-linecap="round" stroke-linejoin="round" stroke-miterlimit="10" stroke-width="1"/>
          </g>
          <g id="g414" transform="translate(22.851 10.104)">
            <path id="path416" d="M-146.2,0V4.728a1.715,1.715,0,0,1-1.71,1.71h-3.341a1.714,1.714,0,0,1-1.708-1.71V0" transform="translate(152.96)" fill="none" stroke="#f1892f" stroke-linecap="round" stroke-linejoin="round" stroke-miterlimit="10" stroke-width="1"/>
          </g>
          <g id="g418" transform="translate(26.23 10.104)">
            <path id="path420" d="M0-228.933v-10.584" transform="translate(0 239.517)" fill="none" stroke="#f1892f" stroke-linecap="round" stroke-linejoin="round" stroke-miterlimit="10" stroke-width="1"/>
          </g>
          <g id="g422" transform="translate(17.86 27.144)">
            <path id="path424" d="M0,0H1.039" transform="translate(0 0)" fill="none" stroke="#f1892f" stroke-linecap="round" stroke-linejoin="round" stroke-miterlimit="10" stroke-width="1"/>
          </g>
          <g id="g426" transform="translate(5.076 24.564)">
            <path id="path428" d="M-145.15,0H-151.1a.758.758,0,0,0-.756.756v4.4m15.859,0V.756A.758.758,0,0,0-136.76,0l-6.162.022" transform="translate(151.861 0)" fill="none" stroke="#f1892f" stroke-linecap="round" stroke-linejoin="round" stroke-miterlimit="10" stroke-width="1"/>
          </g>
          <g id="g430" transform="translate(7.111 27.144)">
            <path id="path432" d="M-22.509,0h-1.041" transform="translate(23.549 0)" fill="none" stroke="#f1892f" stroke-linecap="round" stroke-linejoin="round" stroke-miterlimit="10" stroke-width="1"/>
          </g>
          <g id="g434" transform="translate(5.211 8.993)">
            <path id="path436" d="M-14.269,0c-1.246,1.315-.683,3.289,1.32,3.793" transform="translate(14.929)" fill="none" stroke="#f1892f" stroke-linecap="round" stroke-linejoin="round" stroke-miterlimit="10" stroke-width="1"/>
          </g>
          <g id="g438" transform="translate(24.534 20.688)">
            <path id="path440" d="M-6.478,0h2.794a.3.3,0,0,1,.3.3V8.735a.3.3,0,0,1-.3.3H-6.478a.3.3,0,0,1-.3-.3V.3A.3.3,0,0,1-6.478,0Z" transform="translate(6.777)" fill="none" stroke="#f1892f" stroke-linecap="round" stroke-linejoin="round" stroke-miterlimit="10" stroke-width="1"/>
          </g>
          <g id="g442" transform="translate(24.534 24.778)">
            <path id="path444" d="M-73.39-49.688h-3.393m0-2.3h3.393" transform="translate(76.782 51.985)" fill="none" stroke="#f1892f" stroke-linecap="round" stroke-linejoin="round" stroke-miterlimit="10" stroke-width="1"/>
          </g>
        </g>
      </g>
    </g>
  </g>
</svg>
