<svg xmlns="http://www.w3.org/2000/svg" width="84" height="84" viewBox="0 0 84 84">
  <g id="Quality" transform="translate(-1009 -279)">
    <circle id="Ellipse_423" data-name="Ellipse 423" cx="42" cy="42" r="42" transform="translate(1009 279)" fill="#4ce3df"/>
    <circle id="Ellipse_427" data-name="Ellipse 427" cx="34" cy="34" r="34" transform="translate(1017 287)" fill="#fff"/>
    <g id="quality-2" data-name="quality" transform="translate(1022.69 292.689)">
      <path id="Path_6236" data-name="Path 6236" d="M53.981,28.288l2.258-5.471a4.954,4.954,0,0,0-2-6.136l-5.781-3.459-1.3-5.391A4.967,4.967,0,0,0,41.94,4.037l-6.614.512L31.537,1.194a4.96,4.96,0,0,0-6.454,0L21.293,4.549l-6.614-.512a4.94,4.94,0,0,0-5.161,3.6L7.6,13.582l-5.229,3.1a4.955,4.955,0,0,0-2,6.14l2.257,5.469L.382,33.755a4.951,4.951,0,0,0,1.994,6.138l5.775,3.434,1.307,5.416a4.966,4.966,0,0,0,5.221,3.794l6.543-.505,3.86,3.394a4.953,4.953,0,0,0,6.454,0l3.86-3.394,6.543.505a4.93,4.93,0,0,0,5.221-3.794l1.3-5.391,5.781-3.459a4.956,4.956,0,0,0,1.994-6.138Z" transform="translate(0 0)" fill="#fff"/>
      <path id="Path_6237" data-name="Path 6237" d="M263.087,52.032l6.543.505a4.93,4.93,0,0,0,5.221-3.794l1.3-5.391,5.781-3.459a4.956,4.956,0,0,0,1.994-6.138l-2.257-5.467,2.258-5.471a4.954,4.954,0,0,0-2-6.136l-5.781-3.459-1.3-5.391a4.967,4.967,0,0,0-5.221-3.794l-6.614.512-3.789-3.355A4.956,4.956,0,0,0,256,0V56.621a4.963,4.963,0,0,0,3.227-1.2Z" transform="translate(-227.691 0)" fill="#fff"/>
      <circle id="Ellipse_272" data-name="Ellipse 272" cx="18.205" cy="18.205" r="18.205" transform="translate(10.194 9.923)" fill="#4ce3df"/>
      <path id="Path_6239" data-name="Path 6239" d="M185.42,196.487a1.658,1.658,0,0,0-2.346,0l-7.121,7.121-1.659,1.659-5.463-5.462a1.659,1.659,0,1,0-2.346,2.346l6.635,6.635a1.658,1.658,0,0,0,2.346,0l.486-.486,9.467-9.467A1.658,1.658,0,0,0,185.42,196.487Z" transform="translate(-147.643 -174.325)" fill="#fff"/>
    </g>
  </g>
</svg>
