<svg xmlns="http://www.w3.org/2000/svg" width="84" height="84" viewBox="0 0 84 84">
  <g id="Accounting" transform="translate(-647 -460)">
    <circle id="Ellipse_421" data-name="Ellipse 421" cx="42" cy="42" r="42" transform="translate(647 460)" fill="#4ce3df"/>
    <circle id="Ellipse_431" data-name="Ellipse 431" cx="34" cy="34" r="34" transform="translate(655 468)" fill="#fff"/>
    <path id="accounting_1_" data-name="accounting (1)" d="M25.687,39.8H14.746V36.308H25.687V39.8Zm4.757-16.712H42.768a1.18,1.18,0,0,1,1.177,1.177V40.052a1.18,1.18,0,0,1-1.177,1.177H30.444a1.18,1.18,0,0,1-1.177-1.177V24.266a1.18,1.18,0,0,1,1.177-1.177Zm1.231,2.077a.331.331,0,0,0-.331.331v2a.331.331,0,0,0,.331.331h9.863a.331.331,0,0,0,.331-.331v-2a.331.331,0,0,0-.331-.331Zm8.17,6.612h1.693a.331.331,0,0,0,.331-.331V29.754a.331.331,0,0,0-.331-.331H39.844a.331.331,0,0,0-.331.331v1.693a.331.331,0,0,0,.331.331Zm-4.085,0h1.693a.331.331,0,0,0,.331-.331V29.754a.331.331,0,0,0-.331-.331H35.759a.331.331,0,0,0-.331.331v1.693a.331.331,0,0,0,.331.331Zm-4.085,0h1.693a.331.331,0,0,0,.331-.331V29.754a.331.331,0,0,0-.331-.331H31.674a.331.331,0,0,0-.331.331v1.693a.331.331,0,0,0,.331.331Zm4.085,3.739h1.693a.331.331,0,0,0,.331-.331V33.493a.331.331,0,0,0-.331-.331H35.759a.331.331,0,0,0-.331.331v1.693a.331.331,0,0,0,.331.331Zm-4.085,0h1.693a.331.331,0,0,0,.331-.331V33.493a.331.331,0,0,0-.331-.331H31.674a.331.331,0,0,0-.331.331v1.693a.331.331,0,0,0,.331.331Zm8.17,3.739h1.693a.331.331,0,0,0,.331-.331V33.493a.331.331,0,0,0-.331-.331H39.844a.331.331,0,0,0-.331.331v5.432a.331.331,0,0,0,.331.331Zm-4.085,0h1.693a.331.331,0,0,0,.331-.331V37.232a.331.331,0,0,0-.331-.331H35.759a.331.331,0,0,0-.331.331v1.693a.331.331,0,0,0,.331.331Zm-4.085,0h1.693a.331.331,0,0,0,.331-.331V37.232a.331.331,0,0,0-.331-.331H31.674a.331.331,0,0,0-.331.331v1.693a.331.331,0,0,0,.331.331Zm-3.466-3.025v-2H17.647a.529.529,0,1,1,0-1.058H28.209V31.258H17.647a.529.529,0,1,1,0-1.058H28.209V27.753H27.1a.53.53,0,0,1-.529-.529v-8.27a.53.53,0,0,1,.529-.529h1.578a.53.53,0,0,1,.529.529V22.4a2.218,2.218,0,0,1,1.232-.373h.734V16.541a.53.53,0,0,1,.529-.529h1.578a.53.53,0,0,1,.529.529v5.49h3.029V9.894A1.4,1.4,0,0,0,35.449,8.5H22.626v5.969a2.319,2.319,0,0,1-2.316,2.316H14.341V35.25H26.493l1.716.981ZM21.16,8.908a1.4,1.4,0,0,1,.408-.287v5.848a1.261,1.261,0,0,1-1.259,1.258H14.462a1.4,1.4,0,0,1,.287-.408Zm9.109,4.813-11.276,6.51a.527.527,0,1,1-.525-.913l11.273-6.509-.918-.182a.528.528,0,1,1,.2-1.037l2.3.455a.529.529,0,0,1,.391.711l-.746,2.193a.528.528,0,1,1-1-.339l.3-.889ZM17.9,23.25h1.578a.53.53,0,0,1,.529.529v3.444a.53.53,0,0,1-.529.529H17.9a.53.53,0,0,1-.529-.529V23.779A.53.53,0,0,1,17.9,23.25Zm4.6-2.413H24.08a.53.53,0,0,1,.529.529v5.857a.53.53,0,0,1-.529.529H22.5a.53.53,0,0,1-.529-.529V21.367a.53.53,0,0,1,.529-.529ZM26.74,36.61l1.723.985a.53.53,0,0,1,0,.918L26.74,39.5V36.61ZM13.692,39.8H12.423a.8.8,0,0,1-.793-.793V37.1a.8.8,0,0,1,.793-.793h1.269Z" transform="translate(660.212 477.135)" fill="#43d5d1" fill-rule="evenodd"/>
  </g>
</svg>
