<svg xmlns="http://www.w3.org/2000/svg" width="21.098" height="24.986" viewBox="0 0 21.098 24.986">
  <g id="applications" transform="translate(-3.334 -1)">
    <path id="Path_29570" data-name="Path 29570" d="M3.334,5.148V20.063A4.152,4.152,0,0,0,7.482,24.21h5.056a.833.833,0,1,0,0-1.666H7.482A2.484,2.484,0,0,1,5,20.063V5.147A2.484,2.484,0,0,1,7.482,2.666H18.039a2.484,2.484,0,0,1,2.482,2.482v6.5a.833.833,0,1,0,1.666,0v-6.5A4.152,4.152,0,0,0,18.039,1H7.482A4.152,4.152,0,0,0,3.334,5.148Z" fill="#fff"/>
    <path id="Path_29571" data-name="Path 29571" d="M9.206,7.629H18a.833.833,0,1,0,0-1.666H9.206a.833.833,0,1,0,0,1.666Zm9.625,3.592A.833.833,0,0,0,18,10.388H9.207a.833.833,0,1,0,0,1.666H18a.833.833,0,0,0,.833-.833ZM9.206,14.814a.833.833,0,1,0,0,1.666h4a.833.833,0,0,0,0-1.666Zm10.985-.939a2.873,2.873,0,1,0,2.873,2.874,2.873,2.873,0,0,0-2.873-2.874Zm0,4.082A1.208,1.208,0,1,1,21.4,16.749a1.208,1.208,0,0,1-1.208,1.208ZM15.94,26.816a.833.833,0,0,0,.833-.833,3.418,3.418,0,1,1,6.836,0,.833.833,0,1,0,1.666,0,5.084,5.084,0,0,0-10.168,0,.833.833,0,0,0,.833.833Z" transform="translate(-0.842 -0.829)" fill="#fff"/>
  </g>
</svg>
