<svg xmlns="http://www.w3.org/2000/svg" width="24.985" height="24.986" viewBox="0 0 24.985 24.986">
  <g id="applications" transform="translate(-0.007)">
    <g id="Group_16980" data-name="Group 16980" transform="translate(0.007)">
      <g id="Group_16979" data-name="Group 16979">
        <path id="Path_29558" data-name="Path 29558" d="M20.21,7.259a.488.488,0,0,0,.488-.488V1.464A1.466,1.466,0,0,0,19.234,0H1.471A1.466,1.466,0,0,0,.007,1.464V23.522a1.466,1.466,0,0,0,1.464,1.464H19.234A1.466,1.466,0,0,0,20.7,23.522v-3.6a.488.488,0,0,0-.976,0v3.6a.489.489,0,0,1-.488.488H1.471a.489.489,0,0,1-.488-.488V1.464A.489.489,0,0,1,1.471.976H19.234a.489.489,0,0,1,.488.488V6.771A.488.488,0,0,0,20.21,7.259Z" transform="translate(-0.007)" fill="#fff"/>
      </g>
    </g>
    <g id="Group_16982" data-name="Group 16982" transform="translate(5.863 2.635)">
      <g id="Group_16981" data-name="Group 16981">
        <path id="Path_29559" data-name="Path 29559" d="M124.5,54a4.487,4.487,0,0,0-3.08,7.753.483.483,0,0,0,.052.049,4.481,4.481,0,0,0,6.055,0,.49.49,0,0,0,.052-.049A4.487,4.487,0,0,0,124.5,54Zm0,8a3.5,3.5,0,0,1-2.122-.716,2.44,2.44,0,0,1,4.245,0A3.5,3.5,0,0,1,124.5,62Zm-.781-3.709v-.317a.781.781,0,1,1,1.562,0v.317a.781.781,0,1,1-1.562,0Zm3.608,2.278a3.385,3.385,0,0,0-1.438-1.205,1.748,1.748,0,0,0,.367-1.073v-.317a1.757,1.757,0,1,0-3.514,0v.317a1.748,1.748,0,0,0,.367,1.073,3.386,3.386,0,0,0-1.438,1.205,3.514,3.514,0,1,1,5.655,0Z" transform="translate(-120.007 -54)" fill="#fff"/>
      </g>
    </g>
    <g id="Group_16984" data-name="Group 16984" transform="translate(9.865 21.374)">
      <g id="Group_16983" data-name="Group 16983">
        <path id="Path_29560" data-name="Path 29560" d="M205.13,438h-2.635a.488.488,0,0,0,0,.976h2.635a.488.488,0,0,0,0-.976Z" transform="translate(-202.007 -438)" fill="#fff"/>
      </g>
    </g>
    <g id="Group_16986" data-name="Group 16986" transform="translate(5.57 18.642)">
      <g id="Group_16985" data-name="Group 16985">
        <path id="Path_29561" data-name="Path 29561" d="M121.425,382h-6.93a.488.488,0,1,0,0,.976h6.93a.488.488,0,1,0,0-.976Z" transform="translate(-114.007 -382)" fill="#fff"/>
      </g>
    </g>
    <g id="Group_16988" data-name="Group 16988" transform="translate(5.57 15.909)">
      <g id="Group_16987" data-name="Group 16987">
        <path id="Path_29562" data-name="Path 29562" d="M121.425,326h-6.93a.488.488,0,1,0,0,.976h6.93a.488.488,0,0,0,0-.976Z" transform="translate(-114.007 -326)" fill="#fff"/>
      </g>
    </g>
    <g id="Group_16990" data-name="Group 16990" transform="translate(3.485 13.176)">
      <g id="Group_16989" data-name="Group 16989">
        <path id="Path_29563" data-name="Path 29563" d="M72.12,270.143a.488.488,0,1,0,.143.345A.492.492,0,0,0,72.12,270.143Z" transform="translate(-71.287 -270)" fill="#fff"/>
      </g>
    </g>
    <g id="Group_16992" data-name="Group 16992" transform="translate(3.485 15.909)">
      <g id="Group_16991" data-name="Group 16991">
        <path id="Path_29564" data-name="Path 29564" d="M72.12,326.143a.488.488,0,1,0,.143.345A.493.493,0,0,0,72.12,326.143Z" transform="translate(-71.287 -326)" fill="#fff"/>
      </g>
    </g>
    <g id="Group_16994" data-name="Group 16994" transform="translate(3.485 18.642)">
      <g id="Group_16993" data-name="Group 16993">
        <path id="Path_29565" data-name="Path 29565" d="M72.12,382.143a.488.488,0,1,0,.143.345A.493.493,0,0,0,72.12,382.143Z" transform="translate(-71.287 -382)" fill="#fff"/>
      </g>
    </g>
    <g id="Group_16996" data-name="Group 16996" transform="translate(5.57 13.176)">
      <g id="Group_16995" data-name="Group 16995">
        <path id="Path_29566" data-name="Path 29566" d="M121.425,270h-6.93a.488.488,0,1,0,0,.976h6.93a.488.488,0,1,0,0-.976Z" transform="translate(-114.007 -270)" fill="#fff"/>
      </g>
    </g>
    <g id="Group_16998" data-name="Group 16998" transform="translate(14.529 6.084)">
      <g id="Group_16997" data-name="Group 16997">
        <path id="Path_29567" data-name="Path 29567" d="M307.028,124.951a2.05,2.05,0,0,0-2.8.75l-6.141,10.637a.489.489,0,0,0-.062.19l-.432,3.872a.488.488,0,0,0,.774.447l3.137-2.31a.487.487,0,0,0,.133-.149l6.141-10.637A2.052,2.052,0,0,0,307.028,124.951ZM298.686,139.4l.226-2.022,1.412.815Zm2.35-1.923-1.859-1.074,4.928-8.536,1.86,1.074Zm5.9-10.214-.481.833-1.86-1.074.481-.833a1.074,1.074,0,1,1,1.86,1.074Z" transform="translate(-297.589 -124.675)" fill="#fff"/>
      </g>
    </g>
  </g>
</svg>
