<svg xmlns="http://www.w3.org/2000/svg" version="1.1" xmlns:xlink="http://www.w3.org/1999/xlink" width="512" height="512" x="0" y="0" viewBox="0 0 512 512" style="enable-background:new 0 0 512 512" xml:space="preserve" class=""><g><path d="M137.811 78.211h236.378a8.081 8.081 0 0 0 8.081-8.081V55.988a8.081 8.081 0 0 0-8.081-8.081H137.811a8.081 8.081 0 0 0-8.081 8.081V70.13a8.081 8.081 0 0 0 8.081 8.081z" style="stroke-width:15;stroke-linecap:round;stroke-linejoin:round;stroke-miterlimit:10;" fill="none" stroke="#ffffff" stroke-width="15" stroke-linecap="round" stroke-linejoin="round" stroke-miterlimit="10" data-original="#000000" opacity="1"></path><circle cx="265.476" cy="148.864" r="19.811" style="stroke-width:15;stroke-linecap:round;stroke-linejoin:round;stroke-miterlimit:10;" fill="none" stroke="#ffffff" stroke-width="15" stroke-linecap="round" stroke-linejoin="round" stroke-miterlimit="10" data-original="#000000" opacity="1"></circle><path d="M305.883 219.183H225.07v-30.305c0-11.158 9.045-20.203 20.203-20.203h40.406c11.158 0 20.203 9.045 20.203 20.203v30.305zM407.524 186.858h-71.336M407.524 219.183h-71.336M376.907 155.678h-40.719M407.524 309.313h-71.336M407.524 341.638h-71.336M376.907 278.134h-40.719M407.524 431.768h-71.336M407.524 464.094h-71.336M376.907 400.589h-40.719" style="stroke-width:15;stroke-linecap:round;stroke-linejoin:round;stroke-miterlimit:10;" fill="none" stroke="#ffffff" stroke-width="15" stroke-linecap="round" stroke-linejoin="round" stroke-miterlimit="10" data-original="#000000" opacity="1"></path><circle cx="265.476" cy="271.319" r="19.811" style="stroke-width:15;stroke-linecap:round;stroke-linejoin:round;stroke-miterlimit:10;" fill="none" stroke="#ffffff" stroke-width="15" stroke-linecap="round" stroke-linejoin="round" stroke-miterlimit="10" data-original="#000000" opacity="1"></circle><path d="M282.98 341.64h22.9v-30.31c0-11.15-9.04-20.2-20.2-20.2h-40.41c-11.15 0-20.2 9.05-20.2 20.2v30.31h22.91" style="stroke-width:15;stroke-linecap:round;stroke-linejoin:round;stroke-miterlimit:10;" fill="none" stroke="#ffffff" stroke-width="15" stroke-linecap="round" stroke-linejoin="round" stroke-miterlimit="10" data-original="#000000" opacity="1"></path><circle cx="265.476" cy="393.774" r="19.811" style="stroke-width:15;stroke-linecap:round;stroke-linejoin:round;stroke-miterlimit:10;" fill="none" stroke="#ffffff" stroke-width="15" stroke-linecap="round" stroke-linejoin="round" stroke-miterlimit="10" data-original="#000000" opacity="1"></circle><path d="M305.883 464.094H225.07v-30.305c0-11.158 9.045-20.203 20.203-20.203h40.406c11.158 0 20.203 9.045 20.203 20.203v30.305zM138.267 219.183a16.11 16.11 0 0 1-11.428-4.734l-17.629-17.628c-6.312-6.312-6.313-16.545-.001-22.857 6.314-6.312 16.546-6.312 22.858 0l6.2 6.2 25.875-25.875c6.312-6.312 16.545-6.312 22.857 0 6.313 6.312 6.313 16.546 0 22.858l-37.303 37.303a16.118 16.118 0 0 1-11.429 4.733zM138.267 341.638a16.11 16.11 0 0 1-11.428-4.734l-17.629-17.628c-6.312-6.312-6.313-16.545-.001-22.857 6.314-6.312 16.546-6.312 22.858-.001l6.2 6.2 25.875-25.875c6.312-6.312 16.545-6.312 22.857 0 6.313 6.312 6.313 16.546 0 22.858l-37.303 37.303a16.115 16.115 0 0 1-11.429 4.734zM138.267 464.094a16.11 16.11 0 0 1-11.428-4.734l-17.629-17.628c-6.312-6.312-6.313-16.545-.001-22.857 6.314-6.312 16.546-6.312 22.858 0l6.2 6.2 25.875-25.875c6.312-6.312 16.545-6.312 22.857 0 6.313 6.312 6.313 16.546 0 22.858l-37.303 37.303a16.118 16.118 0 0 1-11.429 4.733z" style="stroke-width:15;stroke-linecap:round;stroke-linejoin:round;stroke-miterlimit:10;" fill="none" stroke="#ffffff" stroke-width="15" stroke-linecap="round" stroke-linejoin="round" stroke-miterlimit="10" data-original="#000000" opacity="1"></path><path d="M64.07 405.23V27.7c0-11.15 9.04-20.2 20.2-20.2h343.46c11.16 0 20.2 9.05 20.2 20.2V72M447.93 107v377.3c0 11.15-9.04 20.2-20.2 20.2H84.27c-11.16 0-20.2-9.05-20.2-20.2v-44.07" style="stroke-width:15;stroke-linecap:round;stroke-linejoin:round;stroke-miterlimit:10;" fill="none" stroke="#ffffff" stroke-width="15" stroke-linecap="round" stroke-linejoin="round" stroke-miterlimit="10" data-original="#000000" opacity="1"></path></g></svg>