<svg xmlns="http://www.w3.org/2000/svg" width="24.628" height="24.986" viewBox="0 0 24.628 24.986">
  <g id="beneficiary" transform="translate(-2.246 -2.111)">
    <path id="Path_29568" data-name="Path 29568" d="M13.641,16.152a5.076,5.076,0,1,1,5.076-5.076A5.091,5.091,0,0,1,13.641,16.152Zm0-7.614a2.538,2.538,0,1,0,2.538,2.538A2.545,2.545,0,0,0,13.641,8.538Zm6.472,13.071a1.152,1.152,0,0,1-.888-.381c-.888-.888-2.411-1.269-5.584-1.269-3.046,0-4.7.381-5.584,1.269a1.256,1.256,0,1,1-1.777-1.777c1.4-1.4,3.553-2.03,7.36-2.03,3.3,0,5.837.381,7.487,2.03a1.227,1.227,0,0,1,0,1.777A1.688,1.688,0,0,1,20.113,21.609Z" transform="translate(0.983 1.046)" fill="#fff"/>
    <path id="Path_29569" data-name="Path 29569" d="M14.624,27.1a6.37,6.37,0,0,1-1.523-.254C5.487,23.417,1.68,17.2,2.314,8.95A3.78,3.78,0,0,1,5.487,5.523a32.453,32.453,0,0,0,3.426-.888,27.07,27.07,0,0,0,4.7-2.284,1.777,1.777,0,0,1,1.777,0,49.814,49.814,0,0,0,4.949,2.284,15.187,15.187,0,0,0,3.3.888A3.893,3.893,0,0,1,26.806,8.95c.635,8.376-3.173,14.467-10.787,18.02A4.758,4.758,0,0,1,14.624,27.1Zm0-22.462A44.474,44.474,0,0,1,9.8,6.919,17.921,17.921,0,0,1,5.995,7.935,1.5,1.5,0,0,0,4.852,9.077c-.508,7.233,2.665,12.436,9.264,15.482a1.084,1.084,0,0,0,.888,0c6.726-3.046,9.771-8.249,9.264-15.482a1.339,1.339,0,0,0-1.142-1.142,21.678,21.678,0,0,1-3.68-1.015c-1.523-.635-3.68-1.65-4.822-2.284Z" transform="translate(0)" fill="#fff"/>
  </g>
</svg>
