<svg xmlns="http://www.w3.org/2000/svg" version="1.1" xmlns:xlink="http://www.w3.org/1999/xlink" width="512" height="512" x="0" y="0" viewBox="0 0 24 24" style="enable-background:new 0 0 512 512" xml:space="preserve"><g><path d="m16.298 8.288 1.404 1.425-5.793 5.707a2.001 2.001 0 0 1-2.823-.005l-2.782-2.696 1.393-1.437 2.793 2.707 5.809-5.701ZM24 12c0 6.617-5.383 12-12 12S0 18.617 0 12 5.383 0 12 0s12 5.383 12 12Zm-2 0c0-5.514-4.486-10-10-10S2 6.486 2 12s4.486 10 10 10 10-4.486 10-10Z" fill="#ffffff" opacity="1" data-original="#000000"></path></g></svg>