<svg id="cms" xmlns="http://www.w3.org/2000/svg" width="497" height="497" viewBox="0 0 497 497">
  <path id="Path_29575" data-name="Path 29575" d="M472.15,0H24.85A24.85,24.85,0,0,0,0,24.85V389.317a24.85,24.85,0,0,0,24.85,24.85H189.688c-4.879,26.739-32.479,32.984-33.962,33.3a33.084,33.084,0,0,0-31.477,32.968A16.567,16.567,0,0,0,140.817,497H356.183a16.567,16.567,0,0,0,16.567-16.567,33.133,33.133,0,0,0-31.477-32.968c-1.3-.265-29.108-6.237-33.962-33.3H472.15A24.85,24.85,0,0,0,497,389.317V24.85A24.85,24.85,0,0,0,472.15,0ZM24.85,16.567h447.3a8.283,8.283,0,0,1,8.283,8.283V347.9H16.567V24.85a8.283,8.283,0,0,1,8.283-8.283ZM356.183,480.433H140.817a16.567,16.567,0,0,1,16.567-16.567H339.617A16.608,16.608,0,0,1,356.183,480.433ZM307.163,447.3H189.821A54.67,54.67,0,0,0,206.5,414.167H290.5A54.67,54.67,0,0,0,307.179,447.3ZM472.15,397.6H24.85a8.283,8.283,0,0,1-8.283-8.283v-24.85H480.433v24.85A8.283,8.283,0,0,1,472.15,397.6Z" transform="translate(0 0)" fill="#fff"/>
  <path id="Path_29576" data-name="Path 29576" d="M20.567,302.2h397.6a16.567,16.567,0,0,0,16.567-16.567V20.567A16.567,16.567,0,0,0,418.167,4H20.567A16.567,16.567,0,0,0,4,20.567V285.633A16.567,16.567,0,0,0,20.567,302.2ZM121.9,227.41,111.725,203.2c2.543-3.081,5.31-6.039,8-8.8a80.669,80.669,0,0,1,9.344-8.093l23.79,10.147a8.283,8.283,0,0,0,7.53-.522,113.184,113.184,0,0,1,31.427-13.013,8.283,8.283,0,0,0,5.707-4.97l9.882-24.3a97.4,97.4,0,0,1,24.212.307l9.592,24a8.283,8.283,0,0,0,5.707,4.97,113.184,113.184,0,0,1,31.427,13.038,8.283,8.283,0,0,0,7.53.522l24.212-10.18c3.081,2.551,6.039,5.31,8.8,8a79.878,79.878,0,0,1,8.093,9.344l-10.147,23.79a8.283,8.283,0,0,0,.522,7.53,113.182,113.182,0,0,1,13.013,31.4,8.283,8.283,0,0,0,4.97,5.707l24.3,9.882c.116,1.168.174,2.435.257,3.678H318.344a99.317,99.317,0,0,0-197.972,0H78.956c.124-1.342.224-2.684.447-3.984l24-9.576a8.283,8.283,0,0,0,4.97-5.707,113.184,113.184,0,0,1,13.038-31.427,8.283,8.283,0,0,0,.5-7.53Zm179.873,58.224H136.939a82.833,82.833,0,0,1,164.838,0ZM20.567,20.567h397.6V285.633H376.518q-.132-2.617-.364-5.227a17.1,17.1,0,0,0-10.644-14.131l-20.137-8.043a129.52,129.52,0,0,0-11.68-28.163l8.515-19.955a16.674,16.674,0,0,0-2.435-17.494q-4.368-5.237-9.178-10.081-4.734-4.695-9.857-8.971a16.7,16.7,0,0,0-17.577-2.485l-19.971,8.524a129.519,129.519,0,0,0-28.163-11.68l-8.051-20.162a17.064,17.064,0,0,0-14.032-10.611,154.349,154.349,0,0,0-27.111,0A17.1,17.1,0,0,0,191.7,147.8l-8.043,20.137a129.517,129.517,0,0,0-28.163,11.679l-19.9-8.54a16.674,16.674,0,0,0-17.494,2.435c-3.09,2.543-6.246,5.426-10.081,9.178q-4.695,4.734-8.971,9.857a16.716,16.716,0,0,0-2.485,17.577l8.5,20.013A129.518,129.518,0,0,0,93.377,258.3L73.216,266.35A17.064,17.064,0,0,0,62.6,280.382c-.166,1.706-.273,3.5-.373,5.335H20.567Z" transform="translate(29.133 29.133)" fill="#fff"/>
  <path id="Path_29577" data-name="Path 29577" d="M108.4,90.836a24.85,24.85,0,0,0,24.85-24.85,8.283,8.283,0,1,0-16.567,0,8.283,8.283,0,1,1-16.567,0V32.853a8.283,8.283,0,1,1,16.567,0,8.283,8.283,0,0,0,16.567,0,24.85,24.85,0,0,0-49.7,0V65.986A24.85,24.85,0,0,0,108.4,90.836Zm49.7,0a8.283,8.283,0,0,0,8.283-8.283v-49.7l6.627,8.838a12.789,12.789,0,0,0,19.88,0l6.627-8.838v49.7a8.283,8.283,0,1,0,16.567,0V20.428a12.425,12.425,0,0,0-22.365-7.455L182.95,27.344,172.182,12.973a12.425,12.425,0,0,0-22.365,7.455V82.553A8.283,8.283,0,0,0,158.1,90.836ZM257.5,57.7a8.283,8.283,0,1,1-7.182,12.425,8.283,8.283,0,0,0-14.338,8.283A24.85,24.85,0,1,0,257.5,41.136a8.283,8.283,0,1,1,7.182-12.425,8.283,8.283,0,0,0,14.338-8.283A24.85,24.85,0,1,0,257.5,57.7ZM50.417,90.836a8.283,8.283,0,1,0,0-16.567H17.283a8.283,8.283,0,0,0,0,16.567Zm265.067,0h33.133a8.283,8.283,0,1,0,0-16.567H315.483a8.283,8.283,0,1,0,0,16.567Z" transform="translate(65.55 58.264)" fill="#fff"/>
</svg>
