<svg id="crc_centre" xmlns="http://www.w3.org/2000/svg" width="480" height="512" viewBox="0 0 480 512">
  <path id="Path_29573" data-name="Path 29573" d="M240,426a10,10,0,1,0-10-10A10,10,0,0,0,240,426Zm150-60H330a10,10,0,0,0-10,10v60a10,10,0,0,0,10,10h60a10,10,0,0,0,10-10V376A10,10,0,0,0,390,366Zm-10,60H340V386h40ZM150,126H90a10,10,0,0,0-10,10v60a10,10,0,0,0,10,10h60a10,10,0,0,0,10-10V136A10,10,0,0,0,150,126Zm-10,60H100V146h40Zm130-60H210a10,10,0,0,0-10,10v60a10,10,0,0,0,10,10h60a10,10,0,0,0,10-10V136A10,10,0,0,0,270,126Zm-10,60H220V146h40Zm60-50v60a10,10,0,0,0,10,10h60a10,10,0,0,0,10-10V136a10,10,0,0,0-10-10H330A10,10,0,0,0,320,136Zm20,10h40v40H340ZM150,246H90a10,10,0,0,0-10,10v60a10,10,0,0,0,10,10h60a10,10,0,0,0,10-10V256A10,10,0,0,0,150,246Zm-10,60H100V266h40Zm130-60H210a10,10,0,0,0-10,10v60a10,10,0,0,0,10,10h60a10,10,0,0,0,10-10V256A10,10,0,0,0,270,246Zm-10,60H220V266h40Zm130-60H330a10,10,0,0,0-10,10v60a10,10,0,0,0,10,10h60a10,10,0,0,0,10-10V256A10,10,0,0,0,390,246Zm-10,60H340V266h40ZM150,366H90a10,10,0,0,0-10,10v60a10,10,0,0,0,10,10h60a10,10,0,0,0,10-10V376A10,10,0,0,0,150,366Zm-10,60H100V386h40Zm0,0" fill="#fff"/>
  <path id="Path_29574" data-name="Path 29574" d="M370,0H110a10,10,0,0,0-10,10V66H50A10,10,0,0,0,40,76V492H10a10,10,0,0,0,0,20H470a10,10,0,0,0,0-20H440V76a10,10,0,0,0-10-10H380V10A10,10,0,0,0,370,0ZM120,20H360V66H120ZM280,492H250V456a10,10,0,0,0-20,0v36H200V386h80Zm140,0H300V376a10,10,0,0,0-10-10H190a10,10,0,0,0-10,10V492H60V86H420Zm0,0" fill="#fff"/>
</svg>
