<svg xmlns="http://www.w3.org/2000/svg" width="24.986" height="24.986" viewBox="0 0 24.986 24.986">
  <g id="dashboard" transform="translate(-1 -1)">
    <path id="Path_29557" data-name="Path 29557" d="M8.95,12.357H4.407A3.407,3.407,0,0,1,1,8.95V4.407A3.407,3.407,0,0,1,4.407,1H8.95a3.407,3.407,0,0,1,3.407,3.407V8.95A3.407,3.407,0,0,1,8.95,12.357ZM4.407,3.271A1.136,1.136,0,0,0,3.271,4.407V8.95a1.136,1.136,0,0,0,1.136,1.136H8.95A1.136,1.136,0,0,0,10.086,8.95V4.407A1.136,1.136,0,0,0,8.95,3.271Zm18.171,9.086H18.036A3.407,3.407,0,0,1,14.629,8.95V4.407A3.407,3.407,0,0,1,18.036,1h4.543a3.407,3.407,0,0,1,3.407,3.407V8.95A3.407,3.407,0,0,1,22.578,12.357ZM18.036,3.271A1.136,1.136,0,0,0,16.9,4.407V8.95a1.136,1.136,0,0,0,1.136,1.136h4.543A1.136,1.136,0,0,0,23.714,8.95V4.407a1.136,1.136,0,0,0-1.136-1.136ZM8.95,25.986H4.407A3.407,3.407,0,0,1,1,22.578V18.036a3.407,3.407,0,0,1,3.407-3.407H8.95a3.407,3.407,0,0,1,3.407,3.407v4.543A3.407,3.407,0,0,1,8.95,25.986ZM4.407,16.9a1.136,1.136,0,0,0-1.136,1.136v4.543a1.136,1.136,0,0,0,1.136,1.136H8.95a1.136,1.136,0,0,0,1.136-1.136V18.036A1.136,1.136,0,0,0,8.95,16.9Zm18.171,9.086H18.036a3.407,3.407,0,0,1-3.407-3.407V18.036a3.407,3.407,0,0,1,3.407-3.407h4.543a3.407,3.407,0,0,1,3.407,3.407v4.543A3.407,3.407,0,0,1,22.578,25.986ZM18.036,16.9A1.136,1.136,0,0,0,16.9,18.036v4.543a1.136,1.136,0,0,0,1.136,1.136h4.543a1.136,1.136,0,0,0,1.136-1.136V18.036A1.136,1.136,0,0,0,22.578,16.9Z" fill="#fff"/>
  </g>
</svg>
