<svg xmlns="http://www.w3.org/2000/svg" xmlns:xlink="http://www.w3.org/1999/xlink" width="24.708" height="24.708" viewBox="0 0 24.708 24.708">
  <defs>
    <clipPath id="clip-path">
      <path id="path81" d="M0-682.665H24.708v24.708H0Z" transform="translate(0 682.665)" fill="#fff"/>
    </clipPath>
  </defs>
  <g id="setting" transform="translate(0 682.665)">
    <g id="g77" transform="translate(0 -682.665)">
      <g id="g79" clip-path="url(#clip-path)">
        <g id="g85" transform="translate(1.347 0.965)">
          <path id="path87" d="M-293.114-202.184a3.8,3.8,0,0,0-3.8,3.8,3.8,3.8,0,0,0,3.8,3.8,3.8,3.8,0,0,0,3.8-3.8A3.8,3.8,0,0,0-293.114-202.184Zm10.656,1.087-1.028.846a2.413,2.413,0,0,0,0,3.726l1.028.846a.965.965,0,0,1,.222,1.228l-2.03,3.515a.965.965,0,0,1-1.174.421l-1.247-.467a2.413,2.413,0,0,0-3.227,1.863l-.219,1.313a.965.965,0,0,1-.952.807h-4.059a.965.965,0,0,1-.952-.807l-.219-1.313a2.413,2.413,0,0,0-3.227-1.863l-1.247.467a.965.965,0,0,1-1.175-.421l-2.03-3.515a.965.965,0,0,1,.222-1.228l1.028-.846a2.413,2.413,0,0,0,0-3.726l-1.028-.846a.965.965,0,0,1-.222-1.228l2.03-3.515a.965.965,0,0,1,1.175-.421l1.247.467a2.413,2.413,0,0,0,3.227-1.863l.219-1.313a.965.965,0,0,1,.952-.806h4.059a.965.965,0,0,1,.952.806l.219,1.313a2.413,2.413,0,0,0,3.227,1.863l1.247-.467a.965.965,0,0,1,1.174.421l2.03,3.515A.965.965,0,0,1-282.458-201.1Z" transform="translate(304.121 209.777)" fill="none" stroke="#fff" stroke-linecap="round" stroke-linejoin="round" stroke-miterlimit="10" stroke-width="2"/>
        </g>
      </g>
    </g>
  </g>
</svg>
