<svg xmlns="http://www.w3.org/2000/svg" width="20" height="20" viewBox="0 0 20 20">
  <g id="logout" transform="translate(0.025 0.025)">
    <g id="Group_843" data-name="Group 843">
      <circle id="Ellipse_36" data-name="Ellipse 36" cx="10" cy="10" r="10" transform="translate(-0.025 -0.025)" fill="#db384a"/>
      <path id="Path_1590" data-name="Path 1590" d="M136.337,114.148v.631a1.351,1.351,0,0,1-.691,1.2,1.351,1.351,0,0,1-1.381,0l-2.806-1.62a1.351,1.351,0,0,1-.691-1.2v-8.277a1.383,1.383,0,0,1,1.381-1.381h6.18a1.383,1.383,0,0,1,1.381,1.381v1.745a.453.453,0,1,1-.907,0v-1.745a.475.475,0,0,0-.474-.474h-5.415l2.732,1.577a1.351,1.351,0,0,1,.691,1.2v6.06h1.993a.475.475,0,0,0,.474-.474v-1.529a.453.453,0,1,1,.907,0v1.529a1.383,1.383,0,0,1-1.381,1.381h-1.993Zm4.2-4.87-.5.5a.453.453,0,0,0,.641.641l1.273-1.273a.453.453,0,0,0,0-.641l-1.273-1.273a.453.453,0,1,0-.641.641l.5.5h-3.346a.453.453,0,0,0,0,.907Z" transform="translate(-125.674 -99.468)" fill="#fff" fill-rule="evenodd"/>
    </g>
  </g>
</svg>
