<svg id="Icons" height="512" viewBox="0 0 60 60" width="512" xmlns="http://www.w3.org/2000/svg"><path d="m3 19h30v30h-30z" fill="#ecf0f1"/><path d="m33 30h26v19h-26z" fill="#d1d4d1"/><rect fill="#7f8284" height="7" rx="1" width="60" y="49"/><path d="m23.99 9.29 10.018 8.835a.5.5 0 0 1 -.331.875h-31.354a.5.5 0 0 1 -.331-.875l10.018-8.835z" fill="#e64c3c"/><path d="m10 35h16a2 2 0 0 1 2 2v12a0 0 0 0 1 0 0h-20a0 0 0 0 1 0 0v-12a2 2 0 0 1 2-2z" fill="#67b9cc"/><circle cx="10" cy="27" fill="#2fa8cc" r="3"/><circle cx="26" cy="27" fill="#2fa8cc" r="3"/><path d="m33 26h25a1 1 0 0 1 1 1v3a0 0 0 0 1 0 0h-26a0 0 0 0 1 0 0v-4a0 0 0 0 1 0 0z" fill="#e64c3c"/><circle cx="18" cy="9" fill="#f0c419" r="6"/><path d="m20.707 6.293a1 1 0 0 0 -1.414 0l-1.293 1.293-1.293-1.293a1 1 0 0 0 -1.414 1.414l1.707 1.707v2.586a1 1 0 0 0 2 0v-2.586l1.707-1.707a1 1 0 0 0 0-1.414z" fill="#e57e25"/><rect fill="#67b9cc" height="11" rx="1" width="18" x="37" y="34"/><path d="m12 49h13v7h-13z" fill="#a5a5a4"/><path d="m14 35h8v14h-8z" fill="#2fa8cc"/><path d="m19 43h-1a1 1 0 0 1 0-2h1a1 1 0 0 1 0 2z" fill="#285680"/><path d="m43 34h6v7h-6z" fill="#2fa8cc"/><path d="m55 41v3a1 1 0 0 1 -1 1h-16a1 1 0 0 1 -1-1v-3z" fill="#e64c3c"/></svg>