<svg id="Layer_1" height="512" viewBox="0 0 64 64" width="512" xmlns="http://www.w3.org/2000/svg" data-name="Layer 1"><path d="m26 47h6v9h-6z" fill="#506173"/><rect fill="#62768c" height="44" rx="2" width="56" x="1" y="4"/><path d="m51 28a13.976 13.976 0 0 0 -12.635 20h16.635a2 2 0 0 0 2-2v-16.635a13.926 13.926 0 0 0 -6-1.365z" fill="#596b80"/><path d="m3 6h52v37h-52z" fill="#d3e3f8"/><path d="m55 28.587a13.99 13.99 0 0 0 -18 13.413c0 .338.027.668.05 1h17.95z" fill="#c8d7eb"/><path d="m38.721 55h-19.442a4 4 0 0 0 -3.922 3.216l-.357 1.784h28l-.357-1.784a4 4 0 0 0 -3.922-3.216z" fill="#62768c"/><circle cx="16" cy="16" fill="#e6ad67" r="4"/><path d="m8 35v-11a4 4 0 0 1 4-4h8a4 4 0 0 1 4 4v11z" fill="#4f81c4"/><g fill="#7cb2f8"><path d="m28 15h16v2h-16z"/><path d="m28 21h22v2h-22z"/><path d="m28 27h11v2h-11z"/></g><circle cx="51" cy="42" fill="#d9777d" r="12"/><path d="m57.364 46.95-4.95-4.95 4.95-4.95-1.414-1.414-4.95 4.95-4.95-4.95-1.414 1.414 4.95 4.95-4.95 4.95 1.414 1.414 4.95-4.95 4.95 4.95z" fill="#f2f2f2"/></svg>