<svg id="Capa_1" enable-background="new 0 0 512 512" height="512" viewBox="0 0 512 512" width="512" xmlns="http://www.w3.org/2000/svg"><g><path d="m287.53 94.596c-11.45-54.034-59.418-94.582-116.864-94.582-65.979 0-119.466 53.487-119.466 119.467s53.487 119.467 119.467 119.467c17.925 0 34.924-3.955 50.184-11.029h66.68v-133.323z" fill="#8ac9fe"/><ellipse cx="170.644" cy="119.459" fill="#8ac9fe" rx="119.445" ry="119.444" transform="matrix(.707 -.707 .707 .707 -34.49 155.652)"/><path d="m170.644.014c-4.437 0-8.815.25-13.126.721 59.79 6.537 106.318 57.193 106.318 118.723s-46.528 112.186-106.318 118.723c4.311.471 8.689.721 13.126.721 65.967 0 119.445-53.477 119.445-119.444s-53.477-119.444-119.445-119.444z" fill="#60b7ff"/><g><path d="m443.711 287.704v-14.623c12.688 0 20.94-13.353 15.264-24.701l-108.915-217.768c-6.29-12.577-24.238-12.577-30.528 0l-108.915 217.768c-5.676 11.348 2.576 24.701 15.264 24.701v14.623z" fill="#fedf30"/><path d="m458.975 248.38-108.915-217.768c-5.376-10.748-19.26-12.302-27.111-4.68 1.336 1.297 2.502 2.852 3.417 4.68l108.915 217.768c5.675 11.348-2.576 24.701-15.264 24.701v14.624h23.694v-14.624c12.688 0 20.94-13.353 15.264-24.701z" fill="#fec526"/><g fill="#444"><path d="m343.863 238.977h-18.133c-4.418 0-8-3.582-8-8v-18.133c0-4.418 3.582-8 8-8h18.133c4.418 0 8 3.582 8 8v18.133c0 4.418-3.582 8-8 8z"/><path d="m344.332 170.554h-19.072c-4.303 0-7.932-3.203-8.467-7.473l-6.395-51.044c-.638-5.094 3.333-9.594 8.467-9.594h31.862c5.134 0 9.105 4.5 8.467 9.594l-6.395 51.044c-.535 4.27-4.165 7.473-8.467 7.473z"/></g><g fill="#333"><path d="m343.621 204.844h-17.65c-1.068 0-2.085.21-3.022.579 3.055 1.206 5.22 4.178 5.22 7.662v17.65c0 3.483-2.165 6.456-5.22 7.662.936.37 1.954.579 3.022.579h17.65c4.552 0 8.241-3.69 8.241-8.241v-17.65c.001-4.552-3.689-8.241-8.241-8.241z"/><path d="m350.727 102.444h-23.694c5.134 0 9.105 4.5 8.467 9.594l-6.395 51.044c-.435 3.476-2.923 6.245-6.156 7.154.737.207 1.512.318 2.311.318h19.071c4.303 0 7.932-3.203 8.467-7.472l6.395-51.044c.639-5.094-3.332-9.594-8.466-9.594z"/></g></g><ellipse cx="170.667" cy="119.481" fill="#f8f6f6" rx="85.333" ry="85.333" transform="matrix(.707 -.707 .707 .707 -34.499 155.675)"/><g><path d="m204.8 127.207h-34.133c-4.267 0-7.726-3.459-7.726-7.726v-51.2c0-4.268 3.459-7.726 7.726-7.726s7.726 3.459 7.726 7.726v43.474h26.407c4.267 0 7.726 3.459 7.726 7.726 0 4.268-3.459 7.726-7.726 7.726z" fill="#444"/></g><path d="m170.667 34.148c-4.022 0-7.973.299-11.847.837 41.518 5.77 73.486 41.39 73.486 84.496s-31.968 78.726-73.486 84.496c3.874.538 7.825.837 11.847.837 47.128 0 85.333-38.205 85.333-85.333s-38.205-85.333-85.333-85.333z" fill="#e2e2e2"/><g><path d="m512 307.214v-17.65c0-9.103-7.38-16.483-16.483-16.483h-479.034c-9.103 0-16.483 7.38-16.483 16.483v17.65l36.099 102.372-36.099 68.267v17.65c0 9.103 7.38 16.483 16.483 16.483h479.034c9.103 0 16.483-7.38 16.483-16.483v-17.65l-11.847-68.267z" fill="#f8f6f6"/><path d="m512 307.214v-17.65c0-9.103-7.38-16.483-16.483-16.483h-23.694c9.103 0 16.483 7.38 16.483 16.483v205.939c0 9.103-7.38 16.483-16.483 16.483h23.694c9.103 0 16.483-7.38 16.483-16.483v-17.65l-11.847-68.267z" fill="#e2e2e2"/><path d="m0 307.214h512v170.638h-512z" fill="#d83131"/><path d="m488.306 307.214h23.694v170.638h-23.694z" fill="#c41926"/></g><g fill="#f8f6f6"><path d="m258.91 350.688c-4.267 0-7.726 3.459-7.726 7.726v68.267c0 4.268 3.459 7.726 7.726 7.726 4.268 0 7.726-3.459 7.726-7.726v-68.267c.001-4.267-3.458-7.726-7.726-7.726z"/><path d="m71.041 366.452c4.267 0 7.726-3.459 7.726-7.726s-3.459-7.726-7.726-7.726h-28.502c-4.267 0-7.726 3.459-7.726 7.726v67.644c0 4.268 3.459 7.726 7.726 7.726h28.503c4.267 0 7.726-3.459 7.726-7.726s-3.459-7.726-7.726-7.726h-20.777v-18.369h18.675c4.267 0 7.726-3.459 7.726-7.726 0-4.268-3.459-7.726-7.726-7.726h-18.675v-18.369h20.776z"/><path d="m389.813 366.452c4.268 0 7.726-3.459 7.726-7.726s-3.459-7.726-7.726-7.726h-28.503c-4.268 0-7.726 3.459-7.726 7.726v67.644c0 4.268 3.459 7.726 7.726 7.726h28.503c4.268 0 7.726-3.459 7.726-7.726s-3.459-7.726-7.726-7.726h-20.777v-18.369h18.675c4.268 0 7.726-3.459 7.726-7.726 0-4.268-3.459-7.726-7.726-7.726h-18.675v-18.369h20.777z"/><path d="m442.708 351.697h-18.763c-2.051 0-4.019.816-5.469 2.269-1.449 1.452-2.262 3.421-2.258 5.473v.053.001 65.102c0 .537.055 1.06.159 1.566.119 1.88.914 3.659 2.259 4.994 1.447 1.437 3.403 2.242 5.443 2.242h.029c.566-.002 13.942-.053 19.283-.147 19.583-.342 33.795-17.46 33.795-40.703.001-24.433-13.855-40.85-34.478-40.85zm.415 66.103c-2.596.045-7.271.082-11.342.106-.025-7.835-.06-19.603-.06-25.431 0-4.868-.02-17.176-.034-25.325h11.022c14.028 0 19.026 13.12 19.026 25.397-.001 12.408-5.755 25.029-18.612 25.253z"/><path d="m140.242 390.126 19.206-27.262c2.457-3.488 1.622-8.309-1.867-10.766-3.488-2.46-8.309-1.622-10.766 1.866l-16.017 22.736-15.992-22.732c-2.456-3.489-7.276-4.33-10.765-1.873-3.49 2.455-4.329 7.275-1.874 10.765l19.177 27.26-22.621 32.111c-2.458 3.488-1.622 8.309 1.867 10.766 1.353.954 2.905 1.412 4.443 1.412 2.428 0 4.818-1.142 6.323-3.278l19.433-27.585 19.402 27.581c1.505 2.138 3.896 3.282 6.326 3.282 1.536 0 3.088-.457 4.439-1.408 3.49-2.455 4.329-7.275 1.874-10.765z"/><path d="m337.679 376.156c0-14.043-11.875-25.468-26.473-25.468h-18.141c-.004 0-.007.001-.011.001s-.007-.001-.011-.001c-4.268 0-7.726 3.459-7.726 7.726v68.267c0 4.268 3.459 7.726 7.726 7.726 4.268 0 7.726-3.459 7.726-7.726v-21.463l23.383 26.568c1.527 1.735 3.66 2.622 5.803 2.622 1.813 0 3.634-.635 5.102-1.926 3.203-2.819 3.514-7.701.695-10.905l-18.214-20.694c11.549-2.739 20.141-12.783 20.141-24.727zm-26.473 10.015c-2.397 0-6.59.018-10.332.036-.019-3.662-.037-7.733-.037-10.051 0-1.964-.011-6.182-.021-10.015h10.39c5.974 0 11.02 4.587 11.02 10.015s-5.046 10.015-11.02 10.015z"/><path d="m209.652 350.688h-19.009c-4.267 0-7.726 3.459-7.726 7.726v68.267c0 4.268 3.459 7.726 7.726 7.726s7.726-3.459 7.726-7.726v-21.969c4.025-.021 8.673-.042 11.282-.042 15.091 0 27.369-12.108 27.369-26.991.001-14.883-12.277-26.991-27.368-26.991zm0 38.529c-2.59 0-7.181.02-11.193.041-.021-4.139-.042-8.922-.042-11.579 0-2.248-.012-7.209-.024-11.538h11.259c6.459 0 11.916 5.284 11.916 11.538 0 6.255-5.457 11.538-11.916 11.538z"/></g></g></svg>