<svg id="Capa_1" enable-background="new 0 0 512 512" height="512" viewBox="0 0 512 512" width="512" xmlns="http://www.w3.org/2000/svg"><g><g><path d="m196.058 49.046-189.971 283.774c-15.862 23.694 1.12 55.499 29.634 55.499h379.942c28.513 0 45.495-31.805 29.634-55.499l-189.972-283.774c-14.123-21.097-45.143-21.097-59.267 0z" fill="#ffe177"/></g><g><path d="m357.476 201.636c-71.593 14.388-125.685 77.753-125.685 153.519 0 11.377 1.231 22.47 3.546 33.163h180.326c28.513 0 45.495-31.805 29.634-55.499z" fill="#ffd15b"/></g><g><g><g><g><g><path d="m225.691 265.767c-9.104 0-16.483-7.38-16.483-16.483v-142.958c0-9.103 7.379-16.483 16.483-16.483s16.483 7.38 16.483 16.483v142.957c0 9.104-7.379 16.484-16.483 16.484z" fill="#fe76a8"/></g></g></g></g><g><circle cx="225.692" cy="315.215" fill="#fe76a8" r="16.483"/></g></g><g><g><circle cx="388.378" cy="355.155" fill="#6cf5c2" r="123.622"/></g><g><path d="m448.22 246.966c9.829 17.732 15.432 38.131 15.432 59.841 0 68.274-55.347 123.622-123.622 123.622-21.71 0-42.109-5.603-59.841-15.432 21.081 38.032 61.625 63.78 108.189 63.78 68.274 0 123.622-55.347 123.622-123.622 0-46.564-25.749-87.108-63.78-108.189z" fill="#00f2a6"/></g><g><circle cx="388.378" cy="355.155" fill="#f2fbff" r="90.656"/></g><g><path d="m463.617 304.635c.012.724.035 1.445.035 2.172 0 68.274-55.347 123.622-123.622 123.622-.727 0-1.448-.022-2.172-.035 14.445 9.731 31.831 15.417 50.52 15.417 49.988 0 90.656-40.668 90.656-90.656 0-18.689-5.686-36.075-15.417-50.52z" fill="#dff6fd"/></g></g><g><path d="m425.465 362.655h-37.087c-4.143 0-7.5-3.358-7.5-7.5v-57.69c0-4.142 3.357-7.5 7.5-7.5s7.5 3.358 7.5 7.5v50.19h29.587c4.143 0 7.5 3.358 7.5 7.5s-3.358 7.5-7.5 7.5z" fill="#528fd8"/></g></g></svg>