<svg enable-background="new 0 0 2048 2048" viewBox="0 0 2048 2048" xmlns="http://www.w3.org/2000/svg"><g id="_x31_4509_-_Stamp_Rejected"><g><path d="m1608.577 735.236-133.987 133.977-609.714 609.714-133.987 133.987c94.018 53.812 202.932 84.573 319.03 84.573 355.241 0 643.231-287.99 643.231-643.231 0-116.099-30.762-225.002-84.573-319.02z" fill="#4d5e80"/><path d="m1300.118 461.492c-76.914-32.495-161.456-50.467-250.199-50.467-124.635 0-240.97 35.437-339.499 96.795l-173.792 158.74c-81.579 107.799-129.951 242.095-129.951 387.695 0 88.743 17.982 173.285 50.477 250.209l142.286-142.286 558.4-558.4 142.286-142.276z" fill="#4d5e80"/><g><path d="m1474.59 869.213c24.733 56.671 38.452 119.257 38.452 185.043 0 255.783-207.35 463.123-463.123 463.123-65.786 0-128.372-13.719-185.043-38.452z" fill="#ffdf40"/></g><g><path d="m1157.841 603.778-558.4 558.4c-8.279-34.632-12.655-70.772-12.655-107.923 0-255.783 207.35-463.133 463.133-463.133 37.151.001 73.29 4.377 107.922 12.656z" fill="#ffdf40"/></g><path d="m1497.217 264.403 291.086 291.096-179.726 179.737-133.987 133.977-609.714 609.714-133.987 133.987-179.737 179.736-291.086-291.096 197.089-197.089 142.286-142.287 558.4-558.4 142.287-142.276z" fill="#edf3f9"/><g><path d="m715.436 462.483c0 15.577-1.734 30.751-5.017 45.337-18.715 83.283-87.928 147.468-173.791 158.741-8.846 1.156-17.868 1.755-27.035 1.755-113.672 0-205.832-92.16-205.832-205.832 0-113.683 92.16-205.832 205.832-205.832 113.683-.002 205.843 92.148 205.843 205.831z" fill="#ff4b87"/></g><path d="m591.514 507.395-52.553-52.557 52.554-52.558c9.674-9.675 9.673-25.362-.003-35.036-9.675-9.674-25.362-9.673-35.036.003l-52.55 52.554-52.55-52.554c-9.675-9.677-25.361-9.677-35.036-.003-9.676 9.674-9.677 25.36-.003 35.036l52.554 52.558-52.553 52.557c-9.675 9.675-9.675 25.361 0 35.036 4.838 4.837 11.178 7.256 17.518 7.256s12.68-2.419 17.518-7.256l52.551-52.556 52.551 52.556c4.838 4.837 11.178 7.256 17.518 7.256s12.68-2.419 17.518-7.256c9.677-9.674 9.677-25.361.002-35.036z" fill="#edf3f9"/><g><g fill="#ff4b87"><path d="m688.976 1471.728c-5.514-5.519-13.303-8.122-21.029-7.014l-57.938 8.279c6.718-11.51 10.314-24.638 10.314-38.329 0-20.379-7.932-39.526-22.327-53.905-29.724-29.724-78.087-29.722-107.81 0l-36.387 36.387c-9.675 9.675-9.675 25.361 0 35.036l72.774 72.774c.002.002.003.003.005.005l67.372 67.361c4.838 4.838 11.176 7.255 17.517 7.255s12.682-2.419 17.519-7.257c9.674-9.676 9.673-25.362-.003-35.036l-32.335-32.33 66.038-9.436 4.03 4.032c9.672 9.68 25.358 9.684 35.036.013s9.684-25.357.013-35.035zm-163.753-55.934c10.405-10.404 27.334-10.404 37.747.009 5.033 5.028 7.805 11.726 7.805 18.86 0 7.133-2.772 13.832-7.815 18.869l-18.869 18.869-37.738-37.738z"/><path d="m1565.543 491.396-5.409-5.41c-48.295-48.296-126.879-48.297-175.176 0l-2.705 2.705c-9.674 9.675-9.674 25.361 0 35.036l145.548 145.548c4.838 4.837 11.177 7.256 17.518 7.256s12.68-2.419 17.518-7.256l2.705-2.705c48.297-48.295 48.297-126.878.001-175.174zm-22.348 123.2-106.262-106.262c28.198-15.379 64.33-11.148 88.164 12.688l5.409 5.41c23.836 23.835 28.066 59.965 12.689 88.164z"/><path d="m770.475 1380.758-18.869 18.869-35.033-35.033 18.869-18.869c9.675-9.675 9.675-25.361 0-35.036s-25.361-9.675-35.036 0l-18.869 18.869-35.034-35.034 18.869-18.869c9.675-9.675 9.675-25.361 0-35.036s-25.361-9.675-35.036 0l-36.387 36.387c-9.675 9.675-9.675 25.361 0 35.036l140.139 140.139c4.838 4.838 11.178 7.256 17.518 7.256s12.68-2.418 17.518-7.256l36.387-36.387c9.675-9.675 9.675-25.361 0-35.036s-25.36-9.675-35.036 0z"/><path d="m1049.412 1101.822-18.869 18.869-35.034-35.034 18.869-18.869c9.675-9.675 9.675-25.361 0-35.036s-25.361-9.675-35.036 0l-18.869 18.869-35.033-35.033 18.869-18.869c9.675-9.675 9.675-25.361 0-35.036-9.675-9.674-25.361-9.674-35.036 0l-36.387 36.387c-4.646 4.646-7.256 10.948-7.256 17.518 0 6.571 2.61 12.872 7.256 17.518l140.14 140.14c4.646 4.646 10.948 7.256 17.518 7.256 6.571 0 12.872-2.61 17.518-7.256l36.387-36.387c9.674-9.675 9.674-25.361 0-35.036-9.676-9.677-25.361-9.677-35.037-.001z"/><path d="m1453.675 697.558-18.869 18.869-35.032-35.035 18.868-18.868c9.674-9.675 9.674-25.361 0-35.036-9.675-9.674-25.361-9.674-35.036 0l-18.867 18.867-35.038-35.04 18.871-18.87c9.674-9.675 9.674-25.361 0-35.036-9.675-9.674-25.361-9.674-35.036 0l-36.387 36.387c-9.674 9.674-9.674 25.36-.001 35.035l70.018 70.024c.018.019.034.039.052.058.019.018.039.034.058.052l70.012 70.018c4.838 4.837 11.177 7.256 17.518 7.256s12.68-2.419 17.518-7.256l36.387-36.387c9.674-9.675 9.674-25.361 0-35.036-9.675-9.676-25.36-9.676-35.036-.002z"/><path d="m821.678 1119.339 17.516-17.516c9.675-9.675 9.675-25.362 0-35.036-9.674-9.675-25.36-9.675-35.036 0l-70.069 70.07c-9.675 9.674-9.675 25.361 0 35.036 4.838 4.838 11.177 7.256 17.518 7.256 6.34 0 12.681-2.419 17.518-7.256l17.518-17.517 87.592 87.582c9.659 9.664 9.659 25.39.006 35.048-4.681 4.68-10.906 7.258-17.528 7.258-6.61 0-12.835-2.581-17.516-7.256l-17.517-17.518c-9.675-9.677-25.361-9.676-35.036-.001-9.675 9.674-9.675 25.361-.001 35.035l17.528 17.529c14.048 14.031 32.708 21.759 52.542 21.759 19.856 0 38.524-7.731 52.568-21.774 28.963-28.978 28.963-76.129-.006-105.113z"/><path d="m1207.08 944.164-17.518 17.518c-14.037 14.038-32.702 21.768-52.556 21.768s-38.519-7.731-52.557-21.768c-14.039-14.039-21.771-32.706-21.771-52.562 0-19.857 7.73-38.518 21.771-52.552l17.517-17.518c9.674-9.675 9.674-25.361 0-35.036-9.675-9.675-25.361-9.675-35.036.001l-17.512 17.513c-23.401 23.388-36.288 54.495-36.288 87.592 0 33.091 12.886 64.201 36.283 87.598 23.396 23.396 54.504 36.281 87.593 36.281 33.09 0 64.198-12.885 87.593-36.281l17.518-17.518c9.674-9.674 9.674-25.361 0-35.036-9.675-9.674-25.361-9.673-35.037 0z"/><path d="m1224.599 716.429 17.517-17.517c9.674-9.675 9.674-25.361 0-35.036s-25.362-9.674-35.036-.001l-70.071 70.07c-9.674 9.675-9.674 25.361 0 35.036 4.838 4.838 11.177 7.257 17.518 7.257 6.34 0 12.682-2.419 17.518-7.256l17.517-17.517 122.621 122.621c4.838 4.837 11.177 7.256 17.518 7.256s12.68-2.419 17.518-7.256c9.674-9.675 9.674-25.361 0-35.036z"/></g></g><g fill="#ffbe40"><path d="m864.876 1478.927c6.83 2.981 13.747 5.797 20.744 8.453l597.423-597.423c-2.656-6.997-5.473-13.914-8.453-20.743z"/><path d="m1157.841 603.778c-7.962-1.903-16.007-3.59-24.121-5.075l-539.353 539.353c1.485 8.115 3.172 16.16 5.075 24.122z"/></g></g></g><g id="Layer_1"/></svg>