<svg xmlns="http://www.w3.org/2000/svg" width="20" height="20" viewBox="0 0 20 20">
  <g id="inactive_scheme" transform="translate(-2 -2)">
    <path id="path14963" d="M12,2A10,10,0,1,0,22,12,10.008,10.008,0,0,0,12,2Z" fill="#ef5350"/>
    <path id="path14970" d="M12,2c-.163,0-.325.006-.486.014a10,10,0,0,1,0,19.973c.161.008.323.014.486.014A10,10,0,0,0,12,2Z" fill="#f44336"/>
    <g id="Group_16371" data-name="Group 16371">
      <path id="path2891" d="M14.729,6.655a.5.5,0,1,0-.455.891,5,5,0,1,1-4.551,0,.5.5,0,0,0-.455-.891,6,6,0,1,0,5.461,0Z" fill="#ffebee"/>
      <path id="path2887" d="M12,5a.5.5,0,0,0-.5.5v7a.5.5,0,0,0,1,0v-7A.5.5,0,0,0,12,5Z" fill="#ffebee"/>
    </g>
  </g>
</svg>
