<svg xmlns="http://www.w3.org/2000/svg" version="1.1" xmlns:xlink="http://www.w3.org/1999/xlink" width="512" height="512" x="0" y="0" viewBox="0 0 24 24" style="enable-background:new 0 0 512 512" xml:space="preserve"><g><path d="M12 10c-2.757 0-5 2.243-5 5s2.243 5 5 5 5-2.243 5-5-2.243-5-5-5Zm0 8c-1.654 0-3-1.346-3-3s1.346-3 3-3 3 1.346 3 3-1.346 3-3 3Zm8.646-7.04C22.526 10.759 24 9.182 24 7.251c0-1.415-.564-2.76-1.593-3.789-4.572-4.572-16.244-4.571-20.814 0C.564 4.491 0 5.836 0 7.25c0 1.932 1.475 3.509 3.354 3.71l-2.06 3.863A11.038 11.038 0 0 0 0 20c0 2.206 1.794 4 4 4h16c2.206 0 4-1.794 4-4 0-1.799-.447-3.589-1.294-5.177l-2.06-3.863ZM2 7.249c0-.88.356-1.723 1.007-2.373 3.867-3.865 14.121-3.865 17.986 0 .65.65 1.008 1.493 1.007 2.374C22 8.215 21.215 9 20.25 9h-.684l-.777-1.295a3.931 3.931 0 0 0-1.729-1.563c-1.13-.521-2.925-1.141-5.06-1.141s-3.93.621-5.059 1.141c-.717.33-1.315.87-1.73 1.563L4.434 9H3.75C2.785 9 2 8.215 2 7.249ZM20 22H4c-1.103 0-2-.897-2-2 0-1.472.366-2.937 1.06-4.235l2.818-5.284 1.048-1.748c.208-.346.502-.614.853-.775C8.726 7.521 10.228 7 12.001 7s3.274.521 4.223.958c.35.161.644.429.852.775l1.048 1.748 2.818 5.284A9.031 9.031 0 0 1 22.002 20c0 1.103-.897 2-2 2Z" fill="#ffffff" opacity="1" data-original="#000000"></path></g></svg>