<svg id="svg8" height="512" viewBox="0 0 16.933333 16.933334" width="512" xmlns="http://www.w3.org/2000/svg" xmlns:svg="http://www.w3.org/2000/svg"><g id="layer1"><path id="path8333" d="m6.61458.926045h9.525c.43973 0 .79375.354012.79375.79375v7.805207c0 .439737-.35402.79375-.79375.79375h-9.525c-.43973 0-.79375-.354013-.79375-.79375v-7.805207c0-.439738.35402-.79375.79375-.79375z" fill="#e4eff8" paint-order="stroke markers fill"/><path id="path8336" d="m5.82083 2.11667v-1.322917c0-.439738.35402-.79375.79375-.79375h9.525c.43973 0 .79375.354012.79375.79375v1.322917z" fill="#ffca28" paint-order="stroke markers fill"/><path id="path8340" d="m1.85209 6.350003c-.43973 0-.79375.354012-.79375.79375v7.672918h13.75833v-7.672918c0-.439738-.35402-.79375-.79375-.79375z" fill="#e4eff8" paint-order="stroke markers fill"/><path id="path8505" d="m3.175 6.350003v5.55625c0 .439737.35402.793748.79375.793748h10.58333c.0934 0 .18151-.0187.26459-.0481v-5.508188c0-.439738-.35402-.79375-.79375-.79375z" fill="#c4dcf0" paint-order="stroke markers fill"/><path id="path8342" d="m14.81667 9.725507c-1.7433 3.431204-10.99757 4.132134-13.75833 4.265894v.82527h13.75833z" fill="#c4dcf0" paint-order="stroke markers fill"/><path id="path8344" d="m2.91042 7.408336c-.43973 0-.79375.354012-.79375.79375v7.672915h11.64167v-7.672915c0-.439738-.35402-.79375-.79375-.79375z" fill="#549ad4" paint-order="stroke markers fill"/><path id="path8510" d="m3.175 7.408336v4.497917c0 .439737.35402.793748.79375.793748h9.78958v-4.497915c0-.439738-.35402-.79375-.79375-.79375z" fill="#3588cb" paint-order="stroke markers fill"/><path id="path8348" d="m13.75834 10.954373c-2.66999 2.095338-8.61853 2.762748-11.64167 2.972428v1.9482h11.64167z" fill="#3588cb"/><path id="path8350" d="m4.23333 2.381253h10.58334c.43973 0 .79375.354012.79375.79375v8.73125c0 .439737-.35402.793748-.79375.793748h-10.58334c-.43973 0-.79375-.354011-.79375-.793748v-8.73125c0-.439738.35402-.79375.79375-.79375z" fill="#e4eff8" paint-order="stroke markers fill"/><path id="path8354" d="m15.1076 2.43758c-.0493 8.113561-8.95927 9.271577-11.66802 9.43715v.03152c0 .439737.35402.793751.79375.793751h10.58334c.43973 0 .79375-.354014.79375-.793751v-8.73125c0-.336646-.20823-.621637-.50282-.737423z" fill="#c4dcf0"/><path id="path8356" d="m3.43958 4.49792v-1.322917c0-.439738.35402-.79375.79375-.79375h10.58334c.43973 0 .79375.354012.79375.79375v1.322917z" fill="#427096" paint-order="stroke markers fill"/><path id="path8358" d="m15.875 14.816671v.52917c0 .87675-.71075 1.58749-1.5875 1.58749h-12.7c-.87675.00001-1.5875-.71074-1.5875-1.58749v-.52917z" fill="#e4eff8" paint-order="stroke markers fill"/><path id="path8362" d="m14.81667 14.816671v.52917c0 .87675-.71075 1.58749-1.5875 1.58749h1.05833c.87675 0 1.5875-.71074 1.5875-1.58749v-.52917z" fill="#c4dcf0" paint-order="stroke markers fill"/><path id="path8364" d="m9.78959 14.816671v.52917c0 .29315-.23601.52916-.52917.52916h-2.38125c-.29316 0-.52917-.23601-.52917-.52916v-.52917z" fill="#427096"/><g fill="#e4eff8"><path id="circle8387" d="m4.76251 3.439587c.0000003.1461243-.1184557.2645821-.26458.264584-.1461282.0000036-.2645903-.1184558-.26459-.264584.0000002-.1461278.1184622-.2645866.26459-.264583.1461239.0000019.2645798.1184591.26458.264583z" paint-order="stroke markers fill"/><path id="circle8389" d="m5.82084 3.439587c.0000003.1461243-.1184557.2645821-.26458.264584-.1461243-.0000019-.2645803-.1184597-.26458-.264584.0000002-.1461239.1184561-.2645811.26458-.264583.1461239.0000019.2645798.1184591.26458.264583z" paint-order="stroke markers fill"/><path id="circle8391" d="m6.87916 3.439587c.0000003.1461243-.1184557.2645821-.26458.264584-.1461243-.0000019-.2645803-.1184597-.26458-.264584.0000002-.1461239.1184561-.2645811.26458-.264583.1461239.0000019.2645798.1184591.26458.264583z" paint-order="stroke markers fill"/><path id="path8393" d="m7.4082 2.380862v2.117188h.5293v-2.117188z" font-variant-ligatures="normal" font-variant-position="normal" font-variant-caps="normal" font-variant-numeric="normal" font-variant-alternates="normal" font-feature-settings="normal" text-indent="0" text-align="start" text-decoration-line="none" text-decoration-style="solid" text-decoration-color="#000000" text-transform="none" text-orientation="mixed" white-space="normal" shape-padding="0" isolation="auto" mix-blend-mode="normal" solid-color="#000000" solid-opacity="1" vector-effect="none"/><path id="circle8397" d="m7.14375 1.058336c-.0000002.1461278-.1184622.2645866-.26459.264583-.1461239-.0000019-.2645798-.1184591-.26458-.264583-.0000003-.14612427.1184557-.2645821.26458-.264584.1461282-.00000362.2645903.11845582.26459.264584z" paint-order="stroke markers fill"/><path id="circle8399" d="m8.20208 1.058336c-.0000002.1461239-.1184561.2645811-.26458.264583-.1461278.0000036-.2645898-.1184552-.26459-.264583-.0000003-.14612818.1184618-.26458762.26459-.264584.1461243.0000019.2645803.11845973.26458.264584z" paint-order="stroke markers fill"/><path id="circle8401" d="m9.26041 1.058336c-.0000002.1461239-.1184561.2645811-.26458.264583-.1461239-.0000019-.2645798-.1184591-.26458-.264583-.0000003-.14612427.1184557-.2645821.26458-.264584.1461243.0000019.2645803.11845973.26458.264584z" paint-order="stroke markers fill"/><path id="path8403" d="m9.78906.000003v2.117188h.5293v-2.117188z" font-variant-ligatures="normal" font-variant-position="normal" font-variant-caps="normal" font-variant-numeric="normal" font-variant-alternates="normal" font-feature-settings="normal" text-indent="0" text-align="start" text-decoration-line="none" text-decoration-style="solid" text-decoration-color="#000000" text-transform="none" text-orientation="mixed" white-space="normal" shape-padding="0" isolation="auto" mix-blend-mode="normal" solid-color="#000000" solid-opacity="1" vector-effect="none"/></g><path id="path8405" d="m8.99609 6.878909c-.3528645 0-.3528645.529297 0 .529297h5.02735c.352865 0 .352865-.529297 0-.529297z" fill="#427096" font-variant-ligatures="normal" font-variant-position="normal" font-variant-caps="normal" font-variant-numeric="normal" font-variant-alternates="normal" font-feature-settings="normal" text-indent="0" text-align="start" text-decoration-line="none" text-decoration-style="solid" text-decoration-color="#000000" text-transform="none" text-orientation="mixed" white-space="normal" shape-padding="0" isolation="auto" mix-blend-mode="normal" solid-color="#000000" solid-opacity="1" vector-effect="none"/><path id="path8408" d="m9 5.820316c-.3535152-.0006519-.3535152.5299479 0 .529296h3.69922c.353515.0006519.353515-.5299479 0-.529296z" fill="#427096" font-variant-ligatures="normal" font-variant-position="normal" font-variant-caps="normal" font-variant-numeric="normal" font-variant-alternates="normal" font-feature-settings="normal" text-indent="0" text-align="start" text-decoration-line="none" text-decoration-style="solid" text-decoration-color="#000000" text-transform="none" text-orientation="mixed" white-space="normal" shape-padding="0" isolation="auto" mix-blend-mode="normal" solid-color="#000000" solid-opacity="1" vector-effect="none"/><path id="path8499" d="m7.40833 10.583336c0 .293159-.23601.529167-.52916.529167h-1.32292c-.29316 0-.52917-.236008-.52917-.529167v-1.058333c0-.293158.24252-.590591.52917-.529167l1.85208-.000026z" fill="#ffca28"/><path id="path8410" d="m6.87305 9.257816c-.068645.00211-.1337795.030827-.18164.08008l-.60547.605468-.0781-.07617c-.2499997-.2505782-.6255782.1250003-.375.375l.26563.263671c.1034258.103861.2715742.103861.375 0l.79297-.792968c.1750888-.1685156.0494805-.4641381-.19336-.455078z" fill="#427096" font-variant-ligatures="normal" font-variant-position="normal" font-variant-caps="normal" font-variant-numeric="normal" font-variant-alternates="normal" font-feature-settings="normal" text-indent="0" text-align="start" text-decoration-line="none" text-decoration-style="solid" text-decoration-color="#000000" text-transform="none" text-orientation="mixed" white-space="normal" shape-padding="0" isolation="auto" mix-blend-mode="normal" solid-color="#000000" solid-opacity="1" vector-effect="none"/><path id="path8417" d="m7.40833 7.143753c0 .293159-.23601.529167-.52916.529167h-1.32292c-.29316 0-.52917-.236008-.52917-.529167v-1.058307c0-.293158.24252-.590591.52917-.529167l1.85208-.000026z" fill="#ffca28"/><path id="path8414" d="m6.87305 5.818362c-.068645.00211-.1337795.030827-.18164.08008l-.60547.605468-.0781-.07617c-.2485244-.2662909-.6399896.1231355-.375.373047l.26563.265625c.1034258.1038611.2715742.1038611.375 0l.79297-.792968c.1750907-.1685155.0494817-.4641402-.19336-.455079z" fill="#427096" font-variant-ligatures="normal" font-variant-position="normal" font-variant-caps="normal" font-variant-numeric="normal" font-variant-alternates="normal" font-feature-settings="normal" text-indent="0" text-align="start" text-decoration-line="none" text-decoration-style="solid" text-decoration-color="#000000" text-transform="none" text-orientation="mixed" white-space="normal" shape-padding="0" isolation="auto" mix-blend-mode="normal" solid-color="#000000" solid-opacity="1" vector-effect="none"/><path id="path8490" d="m8.99609 10.583466c-.3528645 0-.3528645.529297 0 .529297h5.02735c.352865 0 .352865-.529297 0-.529297z" fill="#365b7a" font-variant-ligatures="normal" font-variant-position="normal" font-variant-caps="normal" font-variant-numeric="normal" font-variant-alternates="normal" font-feature-settings="normal" text-indent="0" text-align="start" text-decoration-line="none" text-decoration-style="solid" text-decoration-color="#000000" text-transform="none" text-orientation="mixed" white-space="normal" shape-padding="0" isolation="auto" mix-blend-mode="normal" solid-color="#000000" solid-opacity="1" vector-effect="none"/><path id="path8492" d="m9 9.524873c-.3535152-.0006519-.3535152.529948 0 .529296h3.69922c.353515.000652.353515-.5299479 0-.529296z" fill="#427096" font-variant-ligatures="normal" font-variant-position="normal" font-variant-caps="normal" font-variant-numeric="normal" font-variant-alternates="normal" font-feature-settings="normal" text-indent="0" text-align="start" text-decoration-line="none" text-decoration-style="solid" text-decoration-color="#000000" text-transform="none" text-orientation="mixed" white-space="normal" shape-padding="0" isolation="auto" mix-blend-mode="normal" solid-color="#000000" solid-opacity="1" vector-effect="none"/><path id="path8494" d="m11.31455 9.525003c-.29003.19153-.58833.367281-.89193.529167h2.27635c.360681.008.360681-.5371587 0-.529167z" fill="#365b7a" font-variant-ligatures="normal" font-variant-position="normal" font-variant-caps="normal" font-variant-numeric="normal" font-variant-alternates="normal" font-feature-settings="normal" text-indent="0" text-align="start" text-decoration-line="none" text-decoration-style="solid" text-decoration-color="#000000" text-transform="none" text-orientation="mixed" white-space="normal" shape-padding="0" isolation="auto" mix-blend-mode="normal" solid-color="#000000" solid-opacity="1" vector-effect="none"/><path id="path8515" d="m7.39335 8.995836c-.17331 1.681972-1.96574 1.835017-2.29495 1.848983.091.159299.26053.267684.45785.267684h1.32292c.29315 0 .52916-.236008.52916-.529167v-1.5875z" fill="#ecb200"/><path id="path8520" d="m14.87919 2.387454c-.74595 1.233282-3.22835 1.824838-5.54798 2.110466h6.27921v-1.322917c0-.418285-.32151-.7553-.73123-.787549z" fill="#365b7a"/><path id="path8525" d="m16.20211.006204c-.74595 1.233282-3.22835 1.824838-5.54798 2.110466h6.2792v-1.322917c0-.418285-.3215-.7553-.73122-.787549z" fill="#ecb200"/><path id="path8527" d="m7.39335 5.556253c-.17331 1.681972-1.96574 1.835017-2.29495 1.848982.091.1593.26053.267685.45785.267685h1.32292c.29315 0 .52916-.236008.52916-.529167v-1.5875z" fill="#ecb200"/></g></svg>