<svg id="Filled_Expand" viewBox="0 0 64 64" xmlns="http://www.w3.org/2000/svg" data-name="Filled Expand"><path d="m53 14h5v41h-5z" fill="#819bf2"/><path d="m55 14h3v41h-3z" fill="#738fe8"/><path d="m58 55h-5l2.5 8z" fill="#e6f5f5"/><path d="m58 55h-3l.5 8z" fill="#daeeee"/><path d="m55.5 9a1.5 1.5 0 0 1 1.5 1.5v3.5a0 0 0 0 1 0 0h-3a0 0 0 0 1 0 0v-3.5a1.5 1.5 0 0 1 1.5-1.5z" fill="#8b7d8f"/><path d="m53 14h5v18h-5z" fill="#bbb4be"/><path d="m55 16h3v16h-3z" fill="#aca3af"/><rect fill="#8b7d8f" height="58" rx="2" width="46" x="3" y="5"/><path d="m6.5 63a2 2 0 0 1 -2-2v-53.5a1 1 0 0 1 1-1h41.5a2 2 0 0 1 2 2v52.5a2 2 0 0 1 -2 2z" fill="#7d6f81"/><path d="m6 8h40v52h-40z" fill="#e6f5f5"/><path d="m15 9v-3a2 2 0 0 1 2-2h2l.544-1.632a2 2 0 0 1 1.898-1.368h9.116a2 2 0 0 1 1.9 1.368l.542 1.632h2a2 2 0 0 1 2 2v3z" fill="#fff087"/><path d="m17 9v-1a2 2 0 0 1 2-2h2l.772-2.316a1 1 0 0 1 .949-.684h6.837a2 2 0 0 1 1.9 1.368l.542 1.632h3a2 2 0 0 1 2 2v1z" fill="#ffe664"/><path d="m34.271 21.068a8.442 8.442 0 0 0 -1.057-2.548l.918-1.53-2.122-2.122-1.53.918a8.442 8.442 0 0 0 -2.548-1.057l-.432-1.729h-3l-.432 1.729a8.442 8.442 0 0 0 -2.548 1.057l-1.53-.918-2.122 2.122.918 1.53a8.442 8.442 0 0 0 -1.057 2.548l-1.729.432v3l1.729.432a8.442 8.442 0 0 0 1.057 2.548l-.918 1.53 2.122 2.122 1.53-.918a8.442 8.442 0 0 0 2.548 1.057l.432 1.729h3l.432-1.729a8.442 8.442 0 0 0 2.548-1.057l1.53.918 2.122-2.122-.918-1.53a8.442 8.442 0 0 0 1.057-2.548l1.729-.432v-3zm-8.271 6.932a5 5 0 1 1 5-5 5 5 0 0 1 -5 5z" fill="#aca3af"/><path d="m10 41h5v5h-5z" fill="#ffe664"/><path d="m10 50h5v5h-5z" fill="#ffe664"/><path d="m55.5 12v2h1.5v-3.5a1.5 1.5 0 0 0 -1.5 1.5z" fill="#7d6f81"/><path d="m59.5 16.25h-.75v-2.25a.75.75 0 0 0 -.75-.75h-.25v-2.75a2.25 2.25 0 0 0 -4.5 0v2.75h-.25a.75.75 0 0 0 -.75.75v40.887a.754.754 0 0 0 .033.221l2.5 8.1a.749.749 0 0 0 1.43 0l2.5-8.1a.754.754 0 0 0 .033-.221v-37.137h.75a.751.751 0 0 1 .75.75v10.5a.75.75 0 0 0 1.5 0v-10.5a2.253 2.253 0 0 0 -2.246-2.25zm-4.75-5.75a.75.75 0 0 1 1.5 0v2.75h-1.5zm.75 49.985-1.48-4.735h2.96zm1.75-6.235h-3.5v-21.5h3.5zm0-23h-3.5v-16.5h3.5z"/><path d="m9.25 37a.75.75 0 0 0 .75.75h32a.75.75 0 0 0 0-1.5h-32a.75.75 0 0 0 -.75.75z"/><path d="m42 40.25h-23a.75.75 0 0 0 0 1.5h23a.75.75 0 0 0 0-1.5z"/><path d="m19 45.75h16a.75.75 0 0 0 0-1.5h-16a.75.75 0 0 0 0 1.5z"/><path d="m42 49.25h-23a.75.75 0 0 0 0 1.5h23a.75.75 0 0 0 0-1.5z"/><path d="m35 53.25h-16a.75.75 0 0 0 0 1.5h16a.75.75 0 0 0 0-1.5z"/><path d="m47 4.25h-9.88a2.748 2.748 0 0 0 -2.12-1h-1.459l-.373-1.12a2.749 2.749 0 0 0 -2.609-1.88h-9.118a2.749 2.749 0 0 0 -2.609 1.88l-.373 1.12h-1.459a2.748 2.748 0 0 0 -2.12 1h-9.88a2.752 2.752 0 0 0 -2.75 2.75v54a2.752 2.752 0 0 0 2.75 2.75h42a2.752 2.752 0 0 0 2.75-2.75v-54a2.752 2.752 0 0 0 -2.75-2.75zm-31.25 1.75a1.252 1.252 0 0 1 1.25-1.25h2a.752.752 0 0 0 .712-.513l.544-1.632a1.247 1.247 0 0 1 1.185-.855h9.118a1.247 1.247 0 0 1 1.185.855l.544 1.632a.752.752 0 0 0 .712.513h2a1.252 1.252 0 0 1 1.25 1.25v2.25h-20.5zm-.75 3.75h22a.75.75 0 0 0 .75-.75v-.25h7.5v50.5h-38.5v-50.5h7.5v.25a.75.75 0 0 0 .75.75zm33.25 51.25a1.252 1.252 0 0 1 -1.25 1.25h-42a1.252 1.252 0 0 1 -1.25-1.25v-54a1.252 1.252 0 0 1 1.25-1.25h9.262c-.008.082-.012.166-.012.25v1.25h-8.25a.75.75 0 0 0 -.75.75v52a.75.75 0 0 0 .75.75h40a.75.75 0 0 0 .75-.75v-52a.75.75 0 0 0 -.75-.75h-8.25v-1.25c0-.084 0-.168-.012-.25h9.262a1.252 1.252 0 0 1 1.25 1.25z"/><path d="m15.818 25.228 1.3.324a9.239 9.239 0 0 0 .8 1.925l-.689 1.148a.751.751 0 0 0 .113.916l2.121 2.121a.751.751 0 0 0 .916.113l1.148-.689a9.248 9.248 0 0 0 1.925.8l.324 1.3a.75.75 0 0 0 .728.568h3a.75.75 0 0 0 .728-.568l.324-1.3a9.248 9.248 0 0 0 1.925-.8l1.148.689a.752.752 0 0 0 .916-.113l2.121-2.121a.751.751 0 0 0 .113-.916l-.689-1.148a9.239 9.239 0 0 0 .8-1.925l1.3-.324a.751.751 0 0 0 .568-.728v-3a.751.751 0 0 0 -.568-.728l-1.3-.324a9.248 9.248 0 0 0 -.8-1.925l.689-1.148a.751.751 0 0 0 -.113-.916l-2.121-2.121a.749.749 0 0 0 -.916-.113l-1.148.689a9.248 9.248 0 0 0 -1.925-.8l-.324-1.3a.75.75 0 0 0 -.728-.568h-3a.75.75 0 0 0 -.728.568l-.324 1.3a9.248 9.248 0 0 0 -1.925.8l-1.148-.689a.749.749 0 0 0 -.916.113l-2.121 2.121a.751.751 0 0 0 -.113.916l.689 1.148a9.248 9.248 0 0 0 -.8 1.925l-1.3.324a.751.751 0 0 0 -.568.728v3a.751.751 0 0 0 .568.728zm.932-3.143 1.16-.29a.748.748 0 0 0 .549-.557 7.683 7.683 0 0 1 .964-2.322.753.753 0 0 0 .007-.782l-.618-1.028 1.293-1.293 1.029.616a.748.748 0 0 0 .782-.006 7.714 7.714 0 0 1 2.321-.964.747.747 0 0 0 .558-.548l.291-1.161h1.828l.291 1.161a.747.747 0 0 0 .558.548 7.714 7.714 0 0 1 2.321.964.748.748 0 0 0 .782.006l1.029-.616 1.292 1.293-.617 1.028a.753.753 0 0 0 .007.782 7.683 7.683 0 0 1 .964 2.322.748.748 0 0 0 .549.557l1.16.29v1.83l-1.161.29a.748.748 0 0 0 -.549.557 7.677 7.677 0 0 1 -.963 2.322.753.753 0 0 0 -.007.782l.617 1.028-1.287 1.294-1.029-.617a.748.748 0 0 0 -.782.006 7.714 7.714 0 0 1 -2.321.964.747.747 0 0 0 -.558.548l-.291 1.161h-1.833l-.286-1.161a.747.747 0 0 0 -.558-.548 7.714 7.714 0 0 1 -2.321-.964.748.748 0 0 0 -.782-.006l-1.029.617-1.293-1.294.618-1.028a.753.753 0 0 0 -.007-.782 7.677 7.677 0 0 1 -.963-2.322.748.748 0 0 0 -.549-.557l-1.161-.29z"/><path d="m26 28.75a5.75 5.75 0 1 0 -5.75-5.75 5.757 5.757 0 0 0 5.75 5.75zm0-10a4.25 4.25 0 1 1 -4.25 4.25 4.255 4.255 0 0 1 4.25-4.25z"/><path d="m15 40.25h-5a.75.75 0 0 0 -.75.75v5a.75.75 0 0 0 .75.75h5a.75.75 0 0 0 .75-.75v-5a.75.75 0 0 0 -.75-.75zm-.75 5h-3.5v-3.5h3.5z"/><path d="m15 49.25h-5a.75.75 0 0 0 -.75.75v5a.75.75 0 0 0 .75.75h5a.75.75 0 0 0 .75-.75v-5a.75.75 0 0 0 -.75-.75zm-.75 5h-3.5v-3.5h3.5z"/></svg>