<svg id="Capa_1" enable-background="new 0 0 512 512" height="512" viewBox="0 0 512 512" width="512" xmlns="http://www.w3.org/2000/svg"><g><path d="m280.035 173.688c-2.93-2.928-7.678-2.928-10.607 0l-5.928 5.928v-50.585c0-4.143-3.357-7.5-7.5-7.5s-7.5 3.357-7.5 7.5v50.585l-5.928-5.928c-2.93-2.928-7.678-2.928-10.607 0-2.929 2.93-2.929 7.678 0 10.607l18.731 18.731c1.465 1.464 3.385 2.196 5.304 2.196s3.839-.732 5.304-2.196l18.731-18.731c2.929-2.929 2.929-7.677 0-10.607z" fill="#7a6d79"/><g><g><circle cx="62.439" cy="397.528" fill="#fed2a4" r="31.22"/></g><g><path d="m112.878 512h-100.878c-6.627 0-12-5.373-12-12v-37.951c0-18.392 14.909-33.301 33.301-33.301h58.276c18.392 0 33.301 14.909 33.301 33.301v37.951c0 6.627-5.373 12-12 12z" fill="#62dbfb"/></g><g><path d="m91.577 428.748h-31.22c18.392 0 33.301 14.909 33.301 33.301v49.951h19.22c6.627 0 12-5.373 12-12v-37.951c0-18.392-14.909-33.301-33.301-33.301z" fill="#01d0fb"/></g></g><g><g><circle cx="256" cy="397.528" fill="#fed2a4" r="31.22"/></g><g><path d="m306.439 512h-100.878c-6.627 0-12-5.373-12-12v-37.951c0-18.392 14.909-33.301 33.301-33.301h58.276c18.392 0 33.301 14.909 33.301 33.301v37.951c0 6.627-5.373 12-12 12z" fill="#fd8087"/></g><g><path d="m285.138 428.748h-31.22c18.392 0 33.301 14.909 33.301 33.301v49.951h19.22c6.627 0 12-5.373 12-12v-37.951c0-18.392-14.909-33.301-33.301-33.301z" fill="#fe646f"/></g></g><g><g><circle cx="449.561" cy="397.528" fill="#fed2a4" r="31.22"/></g><g><path d="m500 512h-100.878c-6.627 0-12-5.373-12-12v-37.951c0-18.392 14.909-33.301 33.301-33.301h58.276c18.392 0 33.301 14.909 33.301 33.301v37.951c0 6.627-5.373 12-12 12z" fill="#62dbfb"/></g><g><path d="m478.699 428.748h-31.22c18.392 0 33.301 14.909 33.301 33.301v49.951h19.22c6.627 0 12-5.373 12-12v-37.951c0-18.392-14.909-33.301-33.301-33.301z" fill="#01d0fb"/></g></g><g><g><circle cx="256" cy="280.976" fill="#a2e62e" r="52.033"/></g><g><path d="m281.453 235.598c4.231 7.526 6.655 16.205 6.655 25.453 0 28.737-23.296 52.033-52.033 52.033-9.249 0-17.927-2.424-25.454-6.655 8.915 15.859 25.89 26.579 45.378 26.579 28.737 0 52.033-23.296 52.033-52.033.001-19.487-10.72-36.462-26.579-45.377z" fill="#97d729"/></g></g><g><g><circle cx="449.561" cy="280.976" fill="#fd8087" r="52.033"/></g><g><path d="m475.014 235.598c4.231 7.526 6.655 16.205 6.655 25.453 0 28.737-23.296 52.033-52.033 52.033-9.249 0-17.927-2.424-25.453-6.655 8.915 15.859 25.89 26.579 45.378 26.579 28.737 0 52.033-23.296 52.033-52.033-.001-19.487-10.721-36.462-26.58-45.377z" fill="#fe646f"/></g></g><g><g><circle cx="64.52" cy="280.976" fill="#fd8087" r="52.033"/></g><g><path d="m89.974 235.598c4.231 7.526 6.655 16.205 6.655 25.453 0 28.737-23.296 52.033-52.033 52.033-9.249 0-17.927-2.424-25.454-6.655 8.915 15.859 25.89 26.579 45.378 26.579 28.737 0 52.033-23.296 52.033-52.033 0-19.487-10.721-36.462-26.579-45.377z" fill="#fe646f"/></g></g><g><path d="m308.033 145.691h-104.066c-5.747 0-10.407-4.659-10.407-10.406v-124.878c.001-5.748 4.66-10.407 10.407-10.407h104.065c5.747 0 10.407 4.659 10.407 10.407v124.878c0 5.747-4.659 10.406-10.406 10.406z" fill="#dff6fd"/></g><g><path d="m308.033 0h-31.22c5.747 0 10.407 4.659 10.407 10.407v124.878c0 5.747-4.659 10.407-10.407 10.407h31.22c5.747 0 10.407-4.659 10.407-10.407v-124.878c-.001-5.748-4.66-10.407-10.407-10.407z" fill="#c8effe"/></g><g><path d="m251.8 299.121c-1.92 0-3.839-.732-5.304-2.196l-12.892-12.892c-2.929-2.93-2.929-7.678 0-10.607 2.93-2.928 7.678-2.928 10.607 0l7.588 7.589 15.989-15.988c2.929-2.929 7.678-2.928 10.606.001s2.929 7.678-.001 10.606l-21.292 21.291c-1.462 1.464-3.382 2.196-5.301 2.196z" fill="#dff6fd"/></g><path d="m460.168 280.976 11.347-11.347c2.929-2.93 2.929-7.678 0-10.607-2.93-2.928-7.678-2.928-10.607 0l-11.347 11.348-11.347-11.348c-2.93-2.928-7.678-2.928-10.607 0-2.929 2.93-2.929 7.678 0 10.607l11.347 11.347-11.347 11.347c-2.929 2.93-2.929 7.678 0 10.607 2.93 2.928 7.678 2.928 10.607 0l11.347-11.348 11.347 11.348c1.465 1.464 3.385 2.196 5.304 2.196s3.839-.732 5.304-2.196c2.929-2.93 2.929-7.678 0-10.607z" fill="#dff6fd"/><path d="m75.128 280.976 11.347-11.347c2.929-2.93 2.929-7.678 0-10.607-2.93-2.928-7.678-2.928-10.607 0l-11.347 11.348-11.347-11.348c-2.93-2.928-7.678-2.928-10.607 0-2.929 2.93-2.929 7.678 0 10.607l11.347 11.347-11.347 11.347c-2.929 2.93-2.929 7.678 0 10.607 2.93 2.928 7.678 2.928 10.607 0l11.347-11.348 11.347 11.348c1.465 1.464 3.385 2.196 5.304 2.196s3.839-.732 5.304-2.196c2.929-2.93 2.929-7.678 0-10.607z" fill="#dff6fd"/><g><path d="m285.139 119.891h-58.277c-4.143 0-7.5-3.357-7.5-7.5s3.357-7.5 7.5-7.5h58.277c4.143 0 7.5 3.357 7.5 7.5s-3.358 7.5-7.5 7.5z" fill="#62dbfb"/></g><g><path d="m285.139 80.346h-58.277c-4.143 0-7.5-3.357-7.5-7.5s3.357-7.5 7.5-7.5h58.277c4.143 0 7.5 3.357 7.5 7.5s-3.358 7.5-7.5 7.5z" fill="#62dbfb"/></g><g><path d="m285.139 40.801h-58.277c-4.143 0-7.5-3.357-7.5-7.5s3.357-7.5 7.5-7.5h58.277c4.143 0 7.5 3.357 7.5 7.5s-3.358 7.5-7.5 7.5z" fill="#62dbfb"/></g></g></svg>