<svg id="Layer_1" enable-background="new 0 0 512 512" viewBox="0 0 512 512" xmlns="http://www.w3.org/2000/svg"><g><g><g clip-rule="evenodd" fill-rule="evenodd"><g><ellipse cx="103.347" cy="406.952" fill="#ffd6bd" rx="33.698" ry="33.698" transform="matrix(.973 -.23 .23 .973 -90.734 34.631)"/><path d="m165.599 499.494c-1.834-32.678-29.136-58.844-62.252-58.844s-60.418 26.166-62.252 58.844c-.053.946.253 1.778.903 2.466.651.689 1.466 1.04 2.413 1.04h117.872c.947 0 1.762-.351 2.413-1.04.65-.688.956-1.521.903-2.466z" fill="#64b5f6"/></g><g><ellipse cx="256" cy="406.952" fill="#ffd6bd" rx="33.698" ry="33.698" transform="matrix(.707 -.707 .707 .707 -212.778 300.213)"/><path d="m318.252 499.494c-1.834-32.678-29.136-58.844-62.252-58.844s-60.417 26.166-62.252 58.844c-.053.946.253 1.778.903 2.466.65.689 1.466 1.04 2.413 1.04h117.872c.947 0 1.762-.351 2.413-1.04.65-.688.956-1.521.903-2.466z" fill="#64b5f6"/></g><g><circle cx="408.652" cy="406.952" fill="#ffd6bd" r="33.698"/><path d="m470.904 499.494c-1.834-32.678-29.136-58.844-62.252-58.844s-60.418 26.166-62.252 58.844c-.053.946.253 1.778.903 2.466.651.689 1.466 1.04 2.413 1.04h117.872c.947 0 1.762-.351 2.413-1.04.65-.688.956-1.521.903-2.466z" fill="#64b5f6"/></g><g><path d="m356.559 45.011v80.614c0 29.847-13.166 55.525-37.404 72.945l-63.155 45.392-63.156-45.392c-24.236-17.42-37.402-43.098-37.402-72.945v-80.614c76.224-48.014 124.891-48.014 201.117 0z" fill="#3cbe52"/><path d="m333.927 57.712c-58.955-34.713-96.899-34.714-155.854 0v67.913c0 22.559 9.66 41.402 27.979 54.568l49.948 35.898 49.947-35.898c18.319-13.167 27.981-32.008 27.981-54.568v-67.913z" fill="#72d561"/></g></g><g><circle clip-rule="evenodd" cx="256" cy="112.869" fill="#ffda2d" fill-rule="evenodd" r="54.14"/></g></g><path clip-rule="evenodd" d="m256.002 153.051c-4.419 0-8.003-3.579-8.003-8.003v-2.509c-3.928-1.226-7.441-3.707-9.908-7.13-2.589-3.579-1.792-8.578 1.787-11.167 3.584-2.593 8.592-1.782 11.171 1.801.632.858 1.618 1.377 2.66 1.377h3.551c1.783 0 3.268-1.5 3.268-3.268 0-1.782-1.485-3.282-3.268-3.282h-2.523c-10.624 0-19.268-8.639-19.268-19.269 0-8.262 5.22-15.321 12.529-18.061v-2.848c0-4.424 3.584-8.003 8.003-8.003s7.998 3.579 7.998 8.003v2.509c3.933 1.231 7.441 3.711 9.912 7.13 2.589 3.579 1.787 8.583-1.792 11.172s-8.583 1.787-11.172-1.792c-.627-.868-1.618-1.391-2.66-1.391h-3.551c-1.769 0-3.268 1.499-3.268 3.282 0 1.769 1.499 3.268 3.268 3.268h2.523c10.629 0 19.268 8.654 19.268 19.283 0 8.248-5.22 15.307-12.53 18.047v2.848c.003 4.423-3.576 8.003-7.995 8.003zm-46.139-40.179c0 25.441 20.697 46.139 46.139 46.139 25.441 0 46.139-20.698 46.139-46.139s-20.698-46.144-46.139-46.144c-25.441.001-46.139 20.703-46.139 46.144zm108.279 0c0-34.26-27.87-62.139-62.139-62.139-34.26 0-62.139 27.879-62.139 62.139 0 34.269 27.88 62.139 62.139 62.139 34.269.001 62.139-27.869 62.139-62.139zm-107.42 60.829 45.28 32.539 45.281-32.539c16.119-11.591 24.649-28.21 24.649-48.068v-63.313c-52.991-30.28-86.873-30.28-139.86 0v63.314c0 19.857 8.531 36.476 24.65 48.067zm49.949 48.888 49.949-35.896c20.48-14.723 31.308-35.84 31.308-61.06v-67.921c0-2.834-1.495-5.451-3.938-6.89-61.3-36.09-102.68-36.09-163.981 0-2.438 1.438-3.938 4.056-3.938 6.89v67.921c0 25.229 10.827 46.337 31.308 61.06l49.949 35.896c1.401 1.004 3.032 1.499 4.673 1.499 1.637.001 3.269-.494 4.67-1.499zm94.221 272.41c3.881-26.187 26.507-46.346 53.759-46.346 27.248 0 49.879 20.16 53.769 46.346zm53.759-113.739c14.171 0 25.701 11.521 25.701 25.691 0 14.171-11.53 25.701-25.701 25.701s-25.701-11.53-25.701-25.701 11.53-25.691 25.701-25.691zm27.512 56.999c8.686-7.649 14.19-18.839 14.19-31.308 0-22.989-18.703-41.692-41.702-41.692-22.989 0-41.701 18.703-41.701 41.692 0 12.468 5.513 23.659 14.199 31.308-25.159 10.733-42.847 35.712-42.847 64.742 0 4.419 3.579 7.998 7.998 7.998h124.703c4.419 0 7.998-3.579 7.998-7.998 0-29.03-17.68-54.009-42.838-64.742zm-233.92 56.74c3.876-26.187 26.507-46.346 53.759-46.346 27.248 0 49.878 20.16 53.76 46.346zm53.759-113.739c14.171 0 25.701 11.521 25.701 25.691 0 14.171-11.53 25.701-25.701 25.701-14.17 0-25.701-11.53-25.701-25.701s11.531-25.691 25.701-25.691zm27.498 56.999c8.701-7.649 14.204-18.839 14.204-31.308 0-22.989-18.712-41.692-41.701-41.692s-41.701 18.703-41.701 41.692c0 12.468 5.499 23.659 14.199 31.308-25.168 10.733-42.847 35.712-42.847 64.742 0 4.419 3.579 7.998 7.998 7.998h124.698c4.423 0 8.003-3.579 8.003-7.998-.001-29.03-17.681-54.009-42.853-64.742zm-233.92 56.74c3.891-26.187 26.522-46.346 53.769-46.346 27.253 0 49.883 20.16 53.764 46.346zm53.769-113.739c14.171 0 25.701 11.521 25.701 25.691 0 14.171-11.53 25.701-25.701 25.701-14.166 0-25.696-11.53-25.696-25.701s11.53-25.691 25.696-25.691zm27.502 56.999c8.691-7.649 14.199-18.839 14.199-31.308 0-22.989-18.707-41.692-41.702-41.692-22.999 0-41.696 18.703-41.696 41.692 0 12.468 5.499 23.659 14.19 31.308-25.159 10.733-42.843 35.712-42.843 64.742 0 4.419 3.579 7.998 8.002 7.998h124.699c4.419 0 8.003-3.579 8.003-7.998 0-29.03-17.693-54.009-42.852-64.742zm32.591-312.626c0 27.45 11.78 50.43 34.066 66.45l58.494 42.027 58.49-42.027c22.291-16.019 34.071-38.999 34.071-66.45v-76.183c-70.373-43.38-114.762-43.38-185.121 0zm-66.11 228.719c1.518 1.74 3.707 2.73 6.017 2.73 2.301 0 4.504-.99 6.022-2.73l26.913-30.742c2.91-3.329 2.575-8.38-.75-11.29s-8.385-2.58-11.294.75l-12.888 14.732v-44.842h136.648v44.842l-12.897-14.732c-2.91-3.329-7.96-3.659-11.29-.75-3.32 2.909-3.66 7.96-.755 11.29l26.922 30.742c1.519 1.74 3.711 2.73 6.022 2.73 2.306 0 4.499-.99 6.017-2.73l26.922-30.742c2.909-3.329 2.57-8.38-.75-11.29-3.329-2.91-8.38-2.58-11.289.75l-12.902 14.732v-44.842h136.648v44.842l-12.898-14.732c-2.9-3.329-7.96-3.659-11.28-.75-3.33 2.909-3.66 7.96-.75 11.29l26.908 30.742c1.523 1.74 3.721 2.73 6.022 2.73 2.311 0 4.499-.99 6.017-2.73l26.922-30.742c2.909-3.329 2.57-8.38-.75-11.29-3.329-2.91-8.38-2.58-11.289.75l-12.902 14.732v-52.84c0-4.423-3.579-8.003-7.998-8.003h-144.65v-18.887l59.819-43.002c26.271-18.877 40.74-47.087 40.74-79.437v-80.625c0-2.735-1.41-5.296-3.74-6.757-40.89-25.758-73.217-37.25-104.817-37.25-31.614 0-63.931 11.492-104.821 37.25-2.33 1.462-3.74 4.022-3.74 6.757v80.625c0 32.35 14.468 60.56 40.73 79.437l59.829 43.003v18.887h-144.651c-4.419 0-7.998 3.579-7.998 8.003v52.84l-12.898-14.733c-2.914-3.329-7.965-3.659-11.29-.75-3.324 2.909-3.664 7.96-.755 11.29z" fill-rule="evenodd"/></g></svg>