<svg id="filled_Outline" height="512" viewBox="0 0 512 512" width="512" xmlns="http://www.w3.org/2000/svg"><path d="m347.488 105.641h32v208h-32z" fill="#6e5335" transform="matrix(.908 .418 -.418 .908 120.925 -132.757)"/><path d="m325.091 350.487 14.97-32.529c2.815-6.117.138-13.357-5.979-16.172l-21.454-9.873c-6.117-2.815-13.357-.138-16.172 5.979l-14.97 32.529-36.337-16.722-13.564 29.475c-18.333 39.837-12.584 86.613 14.849 120.826 43.83-1.419 83.097-27.479 101.43-67.316l13.564-29.475z" fill="#4a7799"/><path d="m482.147 61.698-83.477-38.415c-5.044-2.321-11.015-.114-13.336 4.93l-22.661 49.242c-7.328 15.924-.36 34.774 15.565 42.102l44.076 20.283c15.925 7.328 34.774.36 42.102-15.565l22.661-49.242c2.321-5.043.114-11.014-4.93-13.335zm-36.08 45.042-58.139-26.755 13.377-29.07 58.139 26.755z" fill="#4a7799"/><g><path d="m160 456c-4.418 0-8-3.582-8-8v-86.244c0-49.212 21.43-95.804 58.794-127.831 3.354-2.876 8.405-2.486 11.28.868s2.486 8.405-.868 11.28c-33.813 28.984-53.206 71.148-53.206 115.683v86.244c0 4.418-3.582 8-8 8z" fill="#6e5335"/></g><g><path d="m160.001 360.002c-3.239 0-6.287-1.981-7.491-5.193l-9.955-26.547c-8.652-23.071-23.644-43.079-43.354-57.862-3.535-2.651-4.251-7.665-1.601-11.2 2.652-3.536 7.666-4.25 11.2-1.6 22.157 16.618 39.01 39.11 48.735 65.044l9.955 26.547c1.552 4.137-.544 8.749-4.682 10.3-.924.346-1.873.511-2.807.511z" fill="#6e5335"/></g><path d="m270.241 243.672c-29.292 19.782-64.318 4.822-64.318 4.822s-.793-38.078 28.499-57.86 77.578-13.777 77.578-13.777-12.467 47.033-41.759 66.815z" fill="#9dc45e"/><path d="m65.759 283.672c29.292 19.782 64.318 4.822 64.318 4.822s.793-38.078-28.499-57.86-77.578-13.777-77.578-13.777 12.467 47.033 41.759 66.815z" fill="#9dc45e"/><g><path d="m160 360c-4.418 0-8-3.582-8-8v-136c0-4.418 3.582-8 8-8s8 3.582 8 8v136c0 4.418-3.582 8-8 8z" fill="#6e5335"/></g><path d="m192 176c0 35.346-32 56-32 56s-32-20.654-32-56 32-72 32-72 32 36.654 32 72z" fill="#9dc45e"/><path d="m168 424h-16c-50.361 0-97.783 23.711-128 64h272c-30.217-40.289-77.639-64-128-64z" fill="#d6a167"/><g fill="#71b6eb"><path d="m72 120c0 13.255-10.745 24-24 24s-24-10.745-24-24 24-40 24-40 24 26.745 24 40z"/><path d="m296 120c0 13.255-10.745 24-24 24s-24-10.745-24-24 24-40 24-40 24 26.745 24 40z"/><path d="m176 56c0 8.837-7.163 16-16 16s-16-7.163-16-16 16-32 16-32 16 23.163 16 32z"/></g><path d="m120 408c-4.785 0-9.068 2.112-12 5.441-2.932-3.33-7.215-5.441-12-5.441-8.836 0-16 7.163-16 16-8.836 0-16 7.163-16 16s7.164 16 16 16 16-7.163 16-16c4.785 0 9.068-2.112 12-5.441 2.932 3.33 7.215 5.441 12 5.441 8.836 0 16-7.163 16-16s-7.164-16-16-16z" fill="#a67d50"/><path d="m216 416c4.785 0 9.068 2.112 12 5.441 2.932-3.33 7.215-5.441 12-5.441 8.836 0 16 7.163 16 16 8.836 0 16 7.163 16 16s-7.164 16-16 16-16-7.163-16-16c-4.785 0-9.068-2.112-12-5.441-2.932 3.33-7.215 5.441-12 5.441-8.836 0-16-7.163-16-16s7.164-16 16-16z" fill="#a67d50"/><path d="m400 488h-80l1.724-8.621c3.649-18.246 19.669-31.379 38.276-31.379 18.607 0 34.627 13.133 38.276 31.379z" fill="#a67d50"/><path d="m488 488h-128l2.759-12.07c5.838-25.543 31.47-43.93 61.241-43.93 29.771 0 55.403 18.387 61.241 43.93z" fill="#d6a167"/><g><path d="m355.132 400.028 13.564-29.475c.887-1.928.972-4.128.236-6.119-.736-1.99-2.232-3.606-4.159-4.494l-29.07-13.377 11.625-25.261c2.255-4.899 2.467-10.384.597-15.443-.322-.87-.717-1.697-1.145-2.502l71.953-156.357.236.108c5.366 2.469 11.002 3.637 16.554 3.637 15.047 0 29.47-8.584 36.161-23.125l22.661-49.242c4.161-9.043.189-19.786-8.854-23.948l-83.478-38.415c-9.042-4.161-19.786-.189-23.948 8.854l-22.66 49.242c-9.16 19.906-.418 43.553 19.487 52.714l.236.109-71.959 156.37c-5.948 1.326-11.241 5.292-13.981 11.243l-11.624 25.262-29.069-13.377c-4.017-1.847-8.766-.091-10.612 3.923l-13.564 29.475c-9.616 20.897-13.216 44.011-10.41 66.842.058.471.127.94.191 1.41-7.42.585-13.902 4.554-17.894 10.366-9.262-1.6-18.692-2.448-28.206-2.448v-54.244c0-38.77 14.706-75.737 40.821-103.78 5.798 1.762 15.26 3.968 26.309 3.968 12.2 0 26.335-2.692 39.589-11.642 31.417-21.217 44.474-69.356 45.015-71.395.592-2.233.189-4.613-1.104-6.527-1.293-1.915-3.351-3.177-5.643-3.462-2.091-.259-51.623-6.131-83.042 15.085-28.368 19.158-31.636 52.752-31.984 62.184-12.336 13.053-22.421 27.885-29.961 43.91v-54.019c9.133-7.071 32-27.978 32-60.078 0-37.911-32.586-75.672-33.974-77.261-1.519-1.74-3.716-2.739-6.026-2.739s-4.507.999-6.026 2.739c-1.388 1.589-33.974 39.35-33.974 77.261 0 32.1 22.867 53.007 32 60.078v73.734c-3.941-8.047-8.608-15.681-13.937-22.823-.194-8.145-2.764-43.236-32.009-62.986-31.418-21.217-80.948-15.345-83.042-15.085-2.292.285-4.35 1.547-5.643 3.462-1.293 1.914-1.695 4.294-1.104 6.527.541 2.039 13.598 50.178 45.015 71.395 13.256 8.951 27.388 11.642 39.589 11.642 10.574 0 19.696-2.021 25.543-3.739 6.647 9.208 12.102 19.286 16.142 30.057l9.635 25.694c-.12 2.592-.19 5.192-.19 7.8v54.244c-3.104 0-6.198.099-9.281.28-3.221-9.456-12.185-16.28-22.718-16.28-4.254 0-8.387 1.137-12 3.229-3.613-2.093-7.746-3.229-12-3.229-10.812 0-19.976 7.185-22.969 17.031-9.845 2.993-17.031 12.157-17.031 22.969 0 1.983.246 3.909.702 5.753-14.84 10.197-28.108 22.788-39.102 37.447-1.817 2.424-2.11 5.667-.755 8.377s4.125 4.423 7.155 4.423h272c3.03 0 5.8-1.712 7.155-4.422s1.062-5.954-.755-8.377c-5.084-6.778-10.675-13.083-16.679-18.919 8.896-3.279 17.43-7.568 25.414-12.867 19.167-12.721 34.381-30.49 43.997-51.387zm-284.896-122.986c-18.908-12.769-30.419-38.935-35.476-52.926 14.859-.55 43.376.341 62.339 13.147 19.062 12.874 23.581 35.302 24.649 45.605-9.968 2.862-32.456 7.044-51.512-5.826zm168.664-79.779c18.902-12.766 47.455-13.668 62.334-13.136-5.06 13.998-16.568 40.15-35.471 52.915-19.062 12.87-41.557 8.686-51.512 5.828 1.071-10.317 5.593-32.738 24.649-45.607zm-102.9-21.263c0-22.81 15.233-46.986 24-59.009 8.769 12.026 24 36.201 24 59.009 0 23-16.058 39.298-23.999 45.951-7.951-6.661-24.001-22.956-24.001-45.951zm233.94-95.201 22.66-49.242c.346-.752 1.092-1.195 1.869-1.195.287 0 .578.06.855.188l83.477 38.415c1.029.474 1.481 1.696 1.008 2.725l-22.661 49.242c-5.472 11.892-19.602 17.112-31.49 11.642l-44.076-20.283c-11.892-5.473-17.114-19.6-11.642-31.492zm34.258 59.512-70.231 152.615-14.534-6.688 70.231-152.615zm-188.198 283.689c2.317 0 4.446.969 5.996 2.728 1.519 1.725 3.705 2.713 6.003 2.713h.001c2.298 0 4.484-.988 6.003-2.712 1.551-1.76 3.68-2.729 5.997-2.729 4.411 0 8 3.589 8 8 0 4.418 3.582 8 8 8 4.411 0 8 3.589 8 8s-3.589 8-8 8-8-3.589-8-8c0-4.418-3.582-8-8-8-2.317 0-4.446-.969-5.996-2.728-1.519-1.725-3.705-2.713-6.003-2.713-.001 0-.001 0-.001 0-2.298 0-4.484.988-6.003 2.712-1.551 1.76-3.68 2.729-5.997 2.729-4.411 0-8-3.589-8-8s3.589-8 8-8zm-136 8c4.418 0 8-3.582 8-8 0-4.411 3.589-8 8-8 2.317 0 4.446.969 5.996 2.728 1.519 1.725 3.706 2.713 6.004 2.713s4.485-.988 6.004-2.713c1.55-1.759 3.679-2.728 5.996-2.728 4.411 0 8 3.589 8 8s-3.589 8-8 8c-2.317 0-4.446-.969-5.996-2.728-1.519-1.725-3.706-2.713-6.004-2.713s-4.485.988-6.004 2.713c-1.55 1.759-3.679 2.728-5.996 2.728-4.418 0-8 3.582-8 8 0 4.411-3.589 8-8 8s-8-3.589-8-8 3.589-8 8-8zm-38.833 48c7.378-7.841 15.554-14.826 24.338-20.887 4.031 3.064 9.053 4.887 14.495 4.887 10.814 0 19.981-7.189 22.972-17.041 1.753-.535 3.441-1.27 5.028-2.189 3.613 2.093 7.746 3.229 12 3.229 10.312 0 19.125-6.538 22.514-15.686 3.149-.203 6.312-.313 9.486-.313h16c8.117 0 16.168.68 24.087 1.969 1.006 12.315 11.343 22.031 23.913 22.031 4.253 0 8.386-1.137 12-3.229 1.587.919 3.274 1.654 5.028 2.189 2.991 9.851 12.158 17.04 22.972 17.04 4.111 0 7.983-1.04 11.37-2.87 3.997 3.413 7.84 7.019 11.463 10.87zm238.793-30.652c.025-.446.04-.895.04-1.348 0-10.812-7.186-19.976-17.031-22.969-2.993-9.846-12.157-17.031-22.969-17.031-3.278 0-6.482.682-9.435 1.95-.301-1.734-.561-3.477-.776-5.229-2.443-19.88.691-40.006 9.064-58.202l10.22-22.208 29.069 13.377c1.929.887 4.129.972 6.119.236 1.99-.735 3.606-2.232 4.493-4.159l14.969-32.528c.966-2.1 3.459-3.024 5.56-2.056l21.455 9.873c1.017.468 1.791 1.304 2.179 2.354.389 1.05.345 2.188-.124 3.206l-14.969 32.529c-1.847 4.014-.091 8.765 3.923 10.612l29.069 13.377-10.22 22.208c-8.373 18.196-21.62 33.668-38.309 44.744-7.008 4.651-14.51 8.399-22.327 11.264z"/><path d="m384.583 87.252 58.14 26.755c1.06.487 2.201.732 3.345.732.938 0 1.878-.165 2.774-.497 1.99-.735 3.606-2.232 4.493-4.159l13.377-29.07c1.847-4.014.091-8.765-3.923-10.612l-58.139-26.754c-4.017-1.847-8.766-.091-10.612 3.923l-13.378 29.07c-.887 1.927-.972 4.128-.236 6.118.736 1.991 2.232 3.607 4.159 4.494zm20.646-25.725 43.604 20.066-6.688 14.535-43.605-20.066z"/><path d="m48 152c17.645 0 32-14.355 32-32 0-15.531-21.696-40.496-26.046-45.343-1.517-1.691-3.683-2.657-5.954-2.657s-4.437.966-5.954 2.657c-.257.286-6.359 7.107-12.541 15.702-9.087 12.636-13.505 22.332-13.505 29.641 0 17.645 14.355 32 32 32zm0-59.651c10.021 12.452 16 23.526 16 27.651 0 8.822-7.178 16-16 16s-16-7.178-16-16c0-4.125 5.98-15.2 16-27.651z"/><path d="m272 152c17.645 0 32-14.355 32-32 0-15.531-21.696-40.496-26.046-45.343-1.517-1.691-3.683-2.657-5.954-2.657s-4.437.966-5.954 2.657c-.257.286-6.359 7.107-12.541 15.702-9.087 12.636-13.505 22.332-13.505 29.641 0 17.645 14.355 32 32 32zm0-59.651c10.021 12.452 16 23.525 16 27.651 0 8.822-7.178 16-16 16s-16-7.178-16-16c0-4.125 5.98-15.2 16-27.651z"/><path d="m160 80c13.233 0 24-10.766 24-24 0-10.227-12.181-28.965-17.418-36.547-1.493-2.162-3.954-3.453-6.582-3.453s-5.089 1.291-6.582 3.453c-5.237 7.582-17.418 26.32-17.418 36.547 0 13.234 10.767 24 24 24zm0-41.17c4.605 7.76 7.932 14.728 8 17.176-.004 4.408-3.591 7.994-8 7.994-4.411 0-8-3.589-8-7.991.065-2.445 3.393-9.415 8-17.179z"/><path d="m495.799 486.217-2.759-12.07c-6.642-29.057-35.678-50.147-69.04-50.147-19.093 0-36.76 6.916-49.633 18.271-4.553-1.474-9.385-2.271-14.367-2.271-22.343 0-41.739 15.901-46.12 37.809l-1.725 8.622c-.47 2.351.139 4.788 1.658 6.641s3.791 2.928 6.187 2.928h168c2.435 0 4.737-1.109 6.256-3.013 1.517-1.904 2.086-4.396 1.543-6.77zm-140.839-12.07-1.338 5.853h-23.848c3.249-13.964 15.808-24 30.226-24 .843 0 1.677.047 2.505.115-3.486 5.523-6.07 11.58-7.545 18.032zm15.075 5.853.522-2.287c4.996-21.853 27.471-37.713 53.443-37.713s48.447 15.86 53.442 37.713l.522 2.287z"/></g></svg>