<svg id="flat" height="512" viewBox="0 0 512 512" width="512" xmlns="http://www.w3.org/2000/svg"><path d="m347.488 105.641h32v208h-32z" fill="#6e5335" transform="matrix(.908 .418 -.418 .908 120.925 -132.757)"/><path d="m325.091 350.487 14.97-32.529c2.815-6.117.138-13.357-5.979-16.172l-21.454-9.873c-6.117-2.815-13.357-.138-16.172 5.979l-14.97 32.529-36.337-16.722-13.564 29.475c-18.333 39.837-12.584 86.613 14.849 120.826 43.83-1.419 83.097-27.479 101.43-67.316l13.564-29.475z" fill="#4a7799"/><path d="m482.147 61.698-83.477-38.415c-5.044-2.321-11.015-.114-13.336 4.93l-22.661 49.242c-7.328 15.924-.36 34.774 15.565 42.102l44.076 20.283c15.925 7.328 34.774.36 42.102-15.565l22.661-49.242c2.321-5.043.114-11.014-4.93-13.335zm-36.08 45.042-58.139-26.755 13.377-29.07 58.139 26.755z" fill="#4a7799"/><g><path d="m160 456c-4.418 0-8-3.582-8-8v-86.244c0-49.212 21.43-95.804 58.794-127.831 3.354-2.876 8.405-2.486 11.28.868s2.486 8.405-.868 11.28c-33.813 28.984-53.206 71.148-53.206 115.683v86.244c0 4.418-3.582 8-8 8z" fill="#6e5335"/></g><g><path d="m160.001 360.002c-3.239 0-6.287-1.981-7.491-5.193l-9.955-26.547c-8.652-23.071-23.644-43.079-43.354-57.862-3.535-2.651-4.251-7.665-1.601-11.2 2.652-3.536 7.666-4.25 11.2-1.6 22.157 16.618 39.01 39.11 48.735 65.044l9.955 26.547c1.552 4.137-.544 8.749-4.682 10.3-.924.346-1.873.511-2.807.511z" fill="#6e5335"/></g><path d="m270.241 243.672c-29.292 19.782-64.318 4.822-64.318 4.822s-.793-38.078 28.499-57.86 77.578-13.777 77.578-13.777-12.467 47.033-41.759 66.815z" fill="#9dc45e"/><path d="m65.759 283.672c29.292 19.782 64.318 4.822 64.318 4.822s.793-38.078-28.499-57.86-77.578-13.777-77.578-13.777 12.467 47.033 41.759 66.815z" fill="#9dc45e"/><g><path d="m160 360c-4.418 0-8-3.582-8-8v-136c0-4.418 3.582-8 8-8s8 3.582 8 8v136c0 4.418-3.582 8-8 8z" fill="#6e5335"/></g><path d="m192 176c0 35.346-32 56-32 56s-32-20.654-32-56 32-72 32-72 32 36.654 32 72z" fill="#9dc45e"/><path d="m168 424h-16c-50.361 0-97.783 23.711-128 64h272c-30.217-40.289-77.639-64-128-64z" fill="#d6a167"/><g fill="#71b6eb"><path d="m72 120c0 13.255-10.745 24-24 24s-24-10.745-24-24 24-40 24-40 24 26.745 24 40z"/><path d="m296 120c0 13.255-10.745 24-24 24s-24-10.745-24-24 24-40 24-40 24 26.745 24 40z"/><path d="m176 56c0 8.837-7.163 16-16 16s-16-7.163-16-16 16-32 16-32 16 23.163 16 32z"/></g><path d="m120 408c-4.785 0-9.068 2.112-12 5.441-2.932-3.33-7.215-5.441-12-5.441-8.836 0-16 7.163-16 16-8.836 0-16 7.163-16 16s7.164 16 16 16 16-7.163 16-16c4.785 0 9.068-2.112 12-5.441 2.932 3.33 7.215 5.441 12 5.441 8.836 0 16-7.163 16-16s-7.164-16-16-16z" fill="#a67d50"/><path d="m216 416c4.785 0 9.068 2.112 12 5.441 2.932-3.33 7.215-5.441 12-5.441 8.836 0 16 7.163 16 16 8.836 0 16 7.163 16 16s-7.164 16-16 16-16-7.163-16-16c-4.785 0-9.068-2.112-12-5.441-2.932 3.33-7.215 5.441-12 5.441-8.836 0-16-7.163-16-16s7.164-16 16-16z" fill="#a67d50"/><path d="m400 488h-80l1.724-8.621c3.649-18.246 19.669-31.379 38.276-31.379 18.607 0 34.627 13.133 38.276 31.379z" fill="#a67d50"/><path d="m488 488h-128l2.759-12.07c5.838-25.543 31.47-43.93 61.241-43.93 29.771 0 55.403 18.387 61.241 43.93z" fill="#d6a167"/></svg>