<svg id="Layer_1" enable-background="new 0 0 500 500" viewBox="0 0 500 500" xmlns="http://www.w3.org/2000/svg"><g clip-rule="evenodd" fill-rule="evenodd"><path d="m201.452 60.294-23.17-11.806-22.322 22.322 11.807 23.172c-4.512 7.626-7.996 15.934-10.255 24.733l-24.722 8.032v31.568l24.722 8.032c2.261 8.799 5.742 17.106 10.255 24.733l-11.807 23.172 22.322 22.322 23.172-11.807c7.626 4.514 15.934 7.999 24.734 10.258l8.032 24.719h31.568l8.033-24.721c8.798-2.261 17.106-5.743 24.733-10.255l23.172 11.807 22.322-22.322-11.807-23.171c4.513-7.626 7.998-15.934 10.258-24.734l24.719-8.032v-31.568l-24.722-8.032c-2.261-8.798-5.742-17.106-10.255-24.733l11.807-23.172-22.322-22.322-23.172 11.807c-7.626-4.513-15.934-7.998-24.734-10.258l-8.032-24.719h-31.568l-8.032 24.719c-8.801 2.259-17.109 5.743-24.736 10.256zm48.551 16.646c36.225 0 65.591 29.366 65.591 65.591s-29.366 65.591-65.591 65.591-65.591-29.366-65.591-65.591 29.366-65.591 65.591-65.591z" fill="#ada0ad"/><ellipse cx="91.269" cy="349.121" fill="#ffe177" rx="62.817" ry="62.817" transform="matrix(.23 -.973 .973 .23 -269.482 357.737)"/><path d="m125.238 401.968c-20.647 13.299-47.291 13.299-67.938 0v-18.732c0-18.683 15.285-33.969 33.969-33.969 18.683 0 33.969 15.286 33.969 33.969z" fill="#19cfba"/><path d="m91.269 349.266c10.72 0 19.411-8.69 19.411-19.41s-8.691-19.411-19.411-19.411-19.41 8.69-19.41 19.411c0 10.72 8.69 19.41 19.41 19.41z" fill="#fcd4a9"/><ellipse cx="408.736" cy="349.121" fill="#ffe177" rx="62.817" ry="62.817" transform="matrix(.23 -.973 .973 .23 -24.954 666.711)"/><path d="m442.704 401.968c-20.647 13.299-47.291 13.299-67.938 0v-18.732c0-18.683 15.286-33.969 33.969-33.969s33.969 15.286 33.969 33.969z" fill="#fa6e85"/><path d="m408.736 349.266c10.72 0 19.411-8.69 19.411-19.41s-8.691-19.411-19.411-19.411-19.41 8.69-19.41 19.411c-.001 10.72 8.69 19.41 19.41 19.41z" fill="#fcd4a9"/><ellipse cx="250.003" cy="411.86" fill="#ffe177" rx="62.817" ry="62.817" transform="matrix(.707 -.707 .707 .707 -218.005 297.41)"/><path d="m283.971 464.707c-20.647 13.299-47.291 13.299-67.938 0v-18.732c0-18.683 15.285-33.969 33.969-33.969s33.969 15.286 33.969 33.969z" fill="#88c8fe"/><path d="m250.002 412.005c10.721 0 19.411-8.69 19.411-19.41 0-10.721-8.69-19.411-19.411-19.411-10.72 0-19.41 8.69-19.41 19.411 0 10.72 8.691 19.41 19.41 19.41z" fill="#fcd4a9"/><path d="m291.004 449.666v-3.686c0-15.437-8.579-28.892-21.242-35.886 14.951-16.853 3.016-43.933-19.762-43.933-22.874 0-34.761 27.094-19.822 43.933-12.603 6.994-21.183 20.449-21.183 35.886v3.686c-9.171-9.952-14.792-23.236-14.792-37.809 0-30.768 25.029-55.785 55.796-55.785s55.796 25.017 55.796 55.785c.001 14.573-5.62 27.857-14.791 37.809zm-53.43-57.069c0 6.828 5.562 12.384 12.426 12.384 6.804 0 12.366-5.556 12.366-12.384 0-6.834-5.562-12.396-12.366-12.396-6.864 0-12.426 5.562-12.426 12.396zm-14.555 68.098c16.76 9.286 37.133 9.292 53.903 0v-14.715c0-14.869-12.071-26.952-26.922-26.952s-26.981 12.083-26.981 26.952zm26.981-118.669c-38.519 0-69.879 31.324-69.879 69.831 0 38.513 31.359 69.843 69.879 69.843 38.46 0 69.819-31.33 69.819-69.843 0-38.507-31.359-69.831-69.819-69.831zm199.695 44.897v-3.686c0-15.425-8.579-28.892-21.183-35.88 14.922-16.797 3.092-43.927-19.821-43.927-22.82 0-34.695 27.118-19.762 43.927-12.603 6.988-21.183 20.455-21.183 35.88v3.686c-9.23-9.952-14.792-23.224-14.792-37.803 0-30.768 24.969-55.791 55.737-55.791s55.796 25.023 55.796 55.791c.001 14.579-5.62 27.851-14.792 37.803zm-53.37-57.063c0 6.828 5.562 12.378 12.366 12.378 6.864 0 12.425-5.55 12.425-12.378 0-6.84-5.562-12.39-12.425-12.39-6.804.001-12.366 5.55-12.366 12.39zm-14.555 68.092c16.761 9.299 37.168 9.284 53.903 0v-14.715c0-14.857-12.071-26.952-26.981-26.952-14.852 0-26.922 12.094-26.922 26.952zm26.921-118.669c-38.46 0-69.82 31.324-69.82 69.837 0 38.507 31.36 69.837 69.82 69.837 38.519 0 69.879-31.33 69.879-69.837 0-38.513-31.36-69.837-69.879-69.837zm-276.437 107.64v-3.686c0-15.425-8.58-28.892-21.242-35.88 15.131-17.034 2.905-43.927-19.763-43.927-22.666 0-34.895 26.892-19.762 43.927-12.662 6.988-21.242 20.455-21.242 35.88v3.686c-9.171-9.952-14.792-23.224-14.792-37.803 0-30.768 25.029-55.791 55.796-55.791s55.796 25.023 55.796 55.791c.001 14.579-5.62 27.851-14.791 37.803zm-53.371-57.063c0 6.828 5.562 12.378 12.366 12.378 6.805 0 12.366-5.55 12.366-12.378 0-6.84-5.562-12.39-12.366-12.39-6.804.001-12.366 5.55-12.366 12.39zm-14.556 68.092c16.745 9.29 37.099 9.29 53.844 0v-14.715c0-14.857-12.071-26.952-26.922-26.952s-26.922 12.094-26.922 26.952zm26.922-118.669c-38.519 0-69.819 31.324-69.819 69.837 0 38.507 31.3 69.837 69.819 69.837s69.82-31.33 69.82-69.837c0-38.513-31.3-69.837-69.82-69.837zm187.034-123.498c.059.308.059.627 0 .941-.355 5.378-3.077 12.745-13.609 17.325-2.426 1.03-5.029 1.787-7.692 2.266v1.994c0 3.875-3.136 7.023-6.982 7.023-3.905 0-7.041-3.148-7.041-7.023v-1.846c-5.976-.745-11.716-2.367-17.159-4.846-3.55-1.603-5.089-5.769-3.491-9.295 1.598-3.533 5.739-5.095 9.29-3.497 7.721 3.502 19.32 5.853 27.573 2.313 4.201-1.822 4.911-3.793 5.088-4.935-.177-1.053-.887-2.994-5.148-4.923-6.5-2.806-14.899-.67-23.431-4.574-10.837-4.959-13.637-12.291-13.727-17.638 0-.195 0-.396.059-.592.236-5.503 2.84-13.005 13.668-17.496 2.248-.982 4.734-1.716 7.278-2.189v-2.036c0-3.881 3.136-7.017 7.041-7.017 3.846 0 6.982 3.136 6.982 7.017v1.864c6.272.769 11.952 2.379 17.218 4.876 3.491 1.668 4.97 5.858 3.313 9.355-1.657 3.503-5.857 4.988-9.349 3.331-6.998-3.33-18.939-5.75-26.981-2.29 0 .002-5.172 1.859-5.148 4.988.059.87.592 2.781 5.207 4.923 6.424 2.835 13.626.436 23.49 4.615 10.592 4.751 13.255 12.071 13.551 17.366zm-28.283 45.312c32.306 0 58.577-26.271 58.577-58.565 0-32.295-26.271-58.566-58.577-58.566s-58.577 26.271-58.577 58.566c0 32.294 26.271 58.565 58.577 58.565zm0-131.172c-40.057 0-72.6 32.567-72.6 72.607s32.543 72.606 72.6 72.606c39.998 0 72.6-32.567 72.6-72.606 0-40.04-32.602-72.607-72.6-72.607zm70.352 158.076 15.088-15.106-9.467-18.62c-1.124-2.148-1.006-4.698.177-6.769 4.26-7.165 7.455-14.869 9.526-22.898.592-2.331 2.367-4.195 4.615-4.935l19.881-6.461v-21.36l-19.881-6.461c-2.248-.74-4.024-2.603-4.615-4.923-2.071-8.047-5.266-15.745-9.526-22.91-1.183-2.071-1.302-4.627-.177-6.757l9.467-18.632-15.088-15.112-18.638 9.497c-2.13 1.095-4.674 1.012-6.745-.219-7.159-4.236-14.911-7.432-22.898-9.496-2.367-.592-4.201-2.343-4.97-4.627l-6.45-19.869h-21.36l-6.45 19.869c-.71 2.284-2.604 4.036-4.911 4.627-8.047 2.065-15.739 5.26-22.898 9.496-2.071 1.231-4.615 1.302-6.804.219l-18.579-9.497-15.147 15.112 9.526 18.632c1.065 2.13 1.006 4.686-.237 6.757-4.26 7.165-7.455 14.875-9.467 22.91-.651 2.32-2.367 4.183-4.674 4.923l-19.881 6.461v21.36l19.881 6.461c2.308.74 4.023 2.603 4.615 4.935 2.071 8.029 5.266 15.733 9.526 22.898 1.242 2.071 1.302 4.621.237 6.769l-9.526 18.62 7.574 7.544v.018l7.574 7.544 18.579-9.491c2.189-1.089 4.734-1.012 6.804.213 7.16 4.242 14.852 7.443 22.898 9.502 2.308.604 4.201 2.343 4.911 4.627l6.45 19.875h21.36l6.45-19.875c.769-2.284 2.603-4.024 4.97-4.627 8.047-2.065 15.739-5.26 22.898-9.502 2.071-1.225 4.615-1.302 6.745-.213zm38.519 33.359-7.751-1.473c-3.787-.722-7.455 1.781-8.165 5.592-.769 3.81 1.775 7.479 5.562 8.207 3.777.721 29.86 5.834 31.419 5.834 2.309 0 4.97-1.572 4.97-2.071 1.679-1.34 2.362-4.208 1.953-6.366l-5.739-30.022c-.71-3.81-4.379-6.307-8.165-5.586-3.846.716-6.331 4.396-5.621 8.207l1.479 7.745-26.035-26.017 6.213-6.189c2.13-2.154 2.663-5.45 1.302-8.154l-10.118-19.81c3.373-6.177 6.035-12.674 8.047-19.396l21.123-6.875c2.899-.935 4.852-3.627 4.852-6.674v-31.567c0-3.041-1.953-5.733-4.852-6.674l-21.123-6.87c-2.012-6.722-4.674-13.218-8.047-19.39l10.118-19.816c1.361-2.704.828-6.006-1.302-8.148l-22.307-22.324c-2.189-2.154-5.444-2.669-8.165-1.296l-19.822 10.094c-6.153-3.343-12.662-6.041-19.407-8.041l-6.864-21.129c-.947-2.893-3.609-4.852-6.627-4.852h-31.596c-3.018 0-5.739 1.958-6.686 4.852l-6.864 21.129c-6.686 2-13.195 4.698-19.407 8.041l-19.821-10.094c-2.663-1.373-5.976-.858-8.106 1.296l-22.366 22.324c-2.13 2.142-2.663 5.444-1.242 8.148l10.059 19.816c-3.313 6.177-6.035 12.674-8.047 19.39l-21.123 6.87c-2.899.941-4.852 3.633-4.852 6.674v31.567c0 3.047 1.953 5.739 4.852 6.674l21.123 6.875c2.012 6.722 4.734 13.219 8.047 19.396l-10.059 19.81c-1.42 2.704-.888 6 1.242 8.154l6.213 6.189-26.035 26.017 1.479-7.745c.71-3.81-1.775-7.491-5.562-8.207-3.787-.71-7.514 1.775-8.224 5.586l-5.68 30.022c-.421 2.292.166 4.61 1.893 6.337v.059c1.828 1.762 4.063 2.333 6.39 1.899l29.999-5.692c3.846-.728 6.331-4.396 5.621-8.207-.71-3.81-4.379-6.313-8.225-5.592l-7.751 1.473 26.034-26.017 6.213 6.195c2.13 2.154 5.444 2.669 8.106 1.29l19.821-10.088c6.213 3.343 12.722 6.035 19.407 8.041l6.864 21.129c.947 2.905 3.668 4.858 6.686 4.858h8.757v36.78l-4.438-6.514c-2.189-3.201-6.568-4.035-9.763-1.84-3.195 2.177-4.024 6.538-1.834 9.751l17.81 26.046c.727 1.442 6.704 4.484 10.532-.012l17.81-26.034c2.13-3.213 1.302-7.574-1.893-9.763-3.195-2.172-7.574-1.349-9.763 1.852l-4.438 6.514v-36.78h8.816c3.017 0 5.68-1.953 6.627-4.858l6.864-21.129c6.745-2.006 13.254-4.698 19.407-8.041l19.822 10.088c2.722 1.379 5.976.864 8.165-1.29l6.153-6.195z" fill="#1e2f3f"/></g></svg>