<svg id="Capa_1" enable-background="new 0 0 512 512" height="512" viewBox="0 0 512 512" width="512" xmlns="http://www.w3.org/2000/svg"><g><path d="m396 242h-125v-47c0-8.284-6.716-15-15-15s-15 6.716-15 15v47h-125c-24.813 0-45 20.187-45 45v30c0 8.284 6.716 15 15 15s15-6.716 15-15v-30c0-8.271 6.729-15 15-15h125v45c0 8.284 6.716 15 15 15s15-6.716 15-15v-45h125c8.271 0 15 6.729 15 15v30c0 8.284 6.716 15 15 15s15-6.716 15-15v-30c0-24.813-20.187-45-45-45z" fill="#0a789b"/><path d="m271 317v-45h125c8.271 0 15 6.729 15 15v30c0 8.284 6.716 15 15 15s15-6.716 15-15v-30c0-24.813-20.187-45-45-45h-125v-47c0-8.284-6.716-15-15-15v152c8.284 0 15-6.716 15-15z" fill="#08475e"/><g><g><g><path d="m341 512h-170v-35c0-46.944 38.056-85 85-85 46.944 0 85 38.056 85 85z" fill="#ccfc5c"/></g><g><path d="m256 392c46.944 0 85 38.056 85 85v35h-85z" fill="#8ee26b"/></g><g><path d="m256 412c-30.327 0-55-24.673-55-55s24.673-55 55-55 55 24.673 55 55-24.673 55-55 55z" fill="#ffdecf"/></g><path d="m256 302v110c30.327 0 55-24.673 55-55s-24.673-55-55-55z" fill="#ffbeaa"/><g><path d="m171 512h-155c-8.284 0-15-6.716-15-15v-20c0-46.944 38.056-85 85-85 46.944 0 85 38.056 85 85z" fill="#fff04a"/></g><g><path d="m86 392c46.944 0 85 38.056 85 85v35h-85z" fill="#ffcd00"/></g><g><path d="m86 412c-30.327 0-55-24.673-55-55s24.673-55 55-55 55 24.673 55 55-24.673 55-55 55z" fill="#ffdecf"/></g><path d="m86 302v110c30.327 0 55-24.673 55-55s-24.673-55-55-55z" fill="#ffbeaa"/><g><path d="m496 512h-155v-35c0-46.944 38.056-85 85-85 46.944 0 85 38.056 85 85v20c0 8.284-6.716 15-15 15z" fill="#ff8859"/></g><g><path d="m426 392c46.944 0 85 38.056 85 85v20c0 8.284-6.716 15-15 15h-70z" fill="#ff5c5c"/></g><g><path d="m426 412c-30.327 0-55-24.673-55-55s24.673-55 55-55 55 24.673 55 55-24.673 55-55 55z" fill="#ffdecf"/></g><path d="m426 302v110c30.327 0 55-24.673 55-55s-24.673-55-55-55z" fill="#ffbeaa"/></g></g><path d="m386 0h-260l-75 75v60l75 75h260l75-75v-60z" fill="#ccfc5c"/><path d="m256 0v210h130l75-75v-60l-75-75z" fill="#8ee26b"/><g><g><g><path d="m386 210h60c8.284 0 15-6.716 15-15v-60c-41.355 0-75 33.645-75 75z" fill="#00cb75"/><path d="m461 75v-60c0-8.284-6.716-15-15-15h-60c0 41.355 33.645 75 75 75z" fill="#00cb75"/><g fill="#8ee26b"><path d="m51 135v60c0 8.284 6.716 15 15 15h60c0-41.355-33.645-75-75-75z"/><path d="m126 0h-60c-8.284 0-15 6.716-15 15v60c41.355 0 75-33.645 75-75z"/></g></g><g><path d="m256 160c-30.327 0-55-24.673-55-55s24.673-55 55-55 55 24.673 55 55-24.673 55-55 55z" fill="#8ee26b"/></g><path d="m311 105c0-30.327-24.673-55-55-55v110c30.327 0 55-24.673 55-55z" fill="#00cb75"/><g><path d="m146 120h-20c-8.284 0-15-6.716-15-15s6.716-15 15-15h20c8.284 0 15 6.716 15 15s-6.716 15-15 15z" fill="#8ee26b"/></g><g><path d="m386 120h-20c-8.284 0-15-6.716-15-15s6.716-15 15-15h20c8.284 0 15 6.716 15 15s-6.716 15-15 15z" fill="#00cb75"/></g></g></g></g></svg>